<svg width="152" height="78" viewBox="0 0 152 78" fill="none" xmlns="http://www.w3.org/2000/svg">
<path fill-rule="evenodd" clip-rule="evenodd" d="M35.764 54.4238C43.1251 73.5679 64.9714 79.1757 72.3389 77.5459C53.4775 74.4798 43.5702 65.1847 39.6972 54.4238H35.764ZM65.4239 23.5937C65.7691 22.364 66.0816 21.129 66.3517 19.8914C66.639 18.5749 69.5186 0.291937 50.6076 13.9042C47.5159 16.3221 44.7855 19.6752 42.6432 23.5937H36.8983C45.0879 5.95644 65.0173 -0.510746 72.3389 1.92979C83.6388 6.10173 83.0238 14.2381 78.7381 23.5937H65.4239ZM55.2034 54.4238C54.4422 60.9317 56.691 65.9152 65.5752 68.4048C61.1044 64.8909 60.7658 59.9997 62.4798 54.4238H55.2034Z" fill="#008C1E"/>
<path fill-rule="evenodd" clip-rule="evenodd" d="M113.758 54.4238H107.996C105.871 58.2544 103.182 61.5329 100.144 63.9086C81.233 77.5209 84.1126 59.2379 84.3999 57.9214C84.655 56.7525 84.948 55.5858 85.2706 54.4238H71.9203C67.7195 63.6933 67.1953 71.7415 78.4127 75.883C85.7059 78.3141 105.509 71.9064 113.758 54.4238ZM78.4127 0.266872C85.8064 -1.36874 107.782 4.28485 115.066 23.5937H111.127C107.307 12.7462 97.3936 3.35244 78.4127 0.266872ZM95.5234 23.5937C96.3557 16.9856 94.1536 11.9236 85.1764 9.40795C89.7018 12.9648 89.9935 17.9328 88.208 23.5937H95.5234Z" fill="white"/>
<path d="M22.502 52.2728H15.8621V41.7596H6.63993V52.2728H0V26.4509H6.63993V36.5952H15.8621V26.4509H22.502V52.2728Z" fill="white"/>
<path d="M23.9948 26.4509H31.0036L37.0902 38.993L43.1768 26.4509H50.1857L40.4102 45.4485V52.2728H33.7703V45.4485L23.9948 26.4509Z" fill="white"/>
<path d="M51.6583 26.4509H67.1515C69.7337 26.4509 71.6027 27.0411 72.7586 28.2215C73.939 29.3774 74.5292 31.2464 74.5292 33.8286V37.5174C74.5292 40.0996 73.939 41.9809 72.7586 43.1614C71.6027 44.3172 69.7337 44.8951 67.1515 44.8951H58.2983V52.2728H51.6583V26.4509ZM67.8893 33.8286C67.8893 32.353 67.1515 31.6153 65.676 31.6153H58.2983V39.7307H65.676C67.1515 39.7307 67.8893 38.993 67.8893 37.5174V33.8286Z" fill="white"/>
<path d="M77.8477 26.4509H93.3409C95.9231 26.4509 97.7921 27.0411 98.948 28.2215C100.128 29.3774 100.719 31.2464 100.719 33.8286V37.1485C100.719 39.1897 100.374 40.7759 99.6857 41.9072C99.0217 43.0384 97.952 43.7885 96.4764 44.1574L101.087 52.2728H93.8942L89.6521 44.5262H84.4877V52.2728H77.8477V26.4509ZM94.0787 33.8286C94.0787 32.353 93.3409 31.6153 91.8654 31.6153H84.4877V39.3618H91.8654C93.3409 39.3618 94.0787 38.6241 94.0787 37.1485V33.8286Z" fill="white"/>
<path d="M120.997 33.4597C120.997 31.9841 120.259 31.2464 118.784 31.2464H112.513C111.037 31.2464 110.3 31.9841 110.3 33.4597V45.264C110.3 46.7396 111.037 47.4773 112.513 47.4773H118.784C120.259 47.4773 120.997 46.7396 120.997 45.264V33.4597ZM127.637 45.264C127.637 47.8462 127.047 49.7275 125.866 50.908C124.711 52.0638 122.842 52.6417 120.259 52.6417H111.037C108.455 52.6417 106.574 52.0638 105.393 50.908C104.238 49.7275 103.66 47.8462 103.66 45.264V33.4597C103.66 30.8775 104.238 29.0085 105.393 27.8526C106.574 26.6722 108.455 26.082 111.037 26.082H120.259C122.842 26.082 124.711 26.6722 125.866 27.8526C127.047 29.0085 127.637 30.8775 127.637 33.4597V45.264Z" fill="white"/>
<path d="M137.614 52.6417C135.204 52.6417 133.434 52.0761 132.302 50.9448C131.171 49.8136 130.605 48.0429 130.605 45.6329V33.8286C130.605 31.2464 131.183 29.3774 132.339 28.2215C133.52 27.0411 135.401 26.4509 137.983 26.4509H151.263V31.6153H139.459C137.983 31.6153 137.245 32.353 137.245 33.8286V45.6329C137.245 46.1985 137.405 46.6535 137.725 46.9978C138.069 47.3175 138.524 47.4773 139.09 47.4773C139.557 47.4773 140.098 47.4773 140.713 47.4773C141.328 47.4527 141.967 47.4281 142.631 47.4035C143.295 47.379 143.959 47.3544 144.623 47.3298C145.312 47.3052 145.976 47.2683 146.615 47.2191C148.115 47.1207 149.665 47.0224 151.263 46.924V51.9039C149.615 52.0515 147.98 52.1745 146.357 52.2728C144.955 52.3712 143.467 52.4573 141.893 52.531C140.344 52.6048 138.918 52.6417 137.614 52.6417Z" fill="white"/>
</svg>
