<svg width="48" height="48" viewBox="0 0 48 48" fill="none" xmlns="http://www.w3.org/2000/svg">
<path fill-rule="evenodd" clip-rule="evenodd" d="M40.8889 22.1111H6.88889C5.84622 22.1111 5 22.9573 5 24C5 25.0446 5.84622 25.8889 6.88889 25.8889H40.8889C41.9316 25.8889 42.7778 25.0446 42.7778 24C42.7778 22.9573 41.9316 22.1111 40.8889 22.1111ZM40.8889 37.2222H6.88889C5.84622 37.2222 5 38.0684 5 39.1111C5 40.1557 5.84622 41 6.88889 41H40.8889C41.9316 41 42.7778 40.1557 42.7778 39.1111C42.7778 38.0684 41.9316 37.2222 40.8889 37.2222ZM6.88889 10.7778H40.8889C41.9316 10.7778 42.7778 9.93344 42.7778 8.88889C42.7778 7.84622 41.9316 7 40.8889 7H6.88889C5.84622 7 5 7.84622 5 8.88889C5 9.93344 5.84622 10.7778 6.88889 10.7778Z" fill="white"/>
</svg>
