<svg width="72" height="72" viewBox="0 0 72 72" fill="none" xmlns="http://www.w3.org/2000/svg">
<path d="M65.9489 16.0116L64.8792 16.3589L59.1823 16.8605L57.5454 19.4328L56.3726 19.0598L51.7455 14.957L51.0753 12.822L50.1602 10.5326L47.286 7.96026L43.8962 7.30432L43.8189 8.84772L47.1442 12.0888L48.7682 13.9924L46.938 14.957L45.4557 14.5197L43.226 13.5808V11.793L40.3904 10.584L39.4238 14.8155L36.4723 15.4715L36.7687 17.838L40.6353 18.5711L41.3056 14.8026L44.4762 15.2785L45.9455 16.1403H48.3171L49.9024 19.3299L54.2072 23.6772L53.885 25.3749L50.4179 24.9376L44.4375 27.9472L40.1327 33.0919L39.5785 35.3812H38.0189L35.1447 34.0951L32.3478 35.3812L33.0438 38.3266L34.2554 36.9246H36.4078L36.2531 39.497L38.0318 40.0114L39.8491 42.0564L42.6847 41.1947L45.9971 41.7092L49.8637 42.7381L51.7713 42.9696L55.0192 46.648L61.2961 50.3265L57.2361 58.0434L52.957 60.0241L51.333 64.4485L45.1335 68.5771L44.4762 70.9565C50.1086 69.5834 55.3265 66.8762 59.6883 63.0642C64.05 59.2523 67.4271 54.4477 69.5337 49.0573C71.6403 43.6669 72.4144 37.8493 71.7904 32.0971C71.1664 26.3448 69.1627 20.8273 65.9489 16.0116Z" fill="#5B21FF"/>
<path d="M40.0811 54.6224L37.5104 49.7093L39.8626 44.7053L37.459 43.9774L34.7598 41.235L28.7702 39.9352L26.7908 35.607V38.1026H25.9167L20.7754 31.0319V25.209L16.9965 18.9962L10.9941 20.075H6.93241L4.88873 18.7753L7.45939 16.6957L4.88873 17.2936C1.706 22.8205 0.019866 29.098 0.000174475 35.4938C-0.0195171 41.8895 1.62793 48.1775 4.77657 53.7244C7.9252 59.2713 12.4638 63.8811 17.9352 67.0896C23.4066 70.298 29.6175 71.9917 35.9423 72C37.4513 71.9842 38.9579 71.8757 40.4538 71.6751L40.0811 67.2689C40.0811 67.2689 41.7391 60.7702 41.7391 60.5102C41.7391 60.2503 40.0811 54.6224 40.0811 54.6224Z" fill="#5B21FF"/>
<path d="M13.3653 11.1072L19.7489 10.2462L22.6725 8.70867L25.9665 9.61889L31.2265 9.33598L33.0394 6.60533L35.6567 7.02353L42.0403 6.44542L43.8021 4.57579L46.3555 2.98906L49.8537 3.49337L51.1304 3.30886C43.9535 0.031205 35.8458 -0.842418 28.0946 0.826729C20.3434 2.49588 13.3933 6.6121 8.34784 12.5217L13.3653 11.1072ZM37.3292 3.45647L40.9295 1.52533L43.2787 2.82915L39.8826 5.2892L36.6398 5.60901L35.1843 4.69879L37.3292 3.45647ZM26.5154 3.72707L28.1624 4.39128L30.2434 3.72707L31.3925 5.64591L26.5154 6.87593L24.1791 5.57211C24.1791 5.57211 26.4644 4.15758 26.5154 3.72707Z" fill="#5B21FF"/>
</svg>
