<svg width="64" height="72" viewBox="0 0 64 72" fill="none" xmlns="http://www.w3.org/2000/svg">
<path d="M49.4328 20.8202C49.2193 21.5796 48.5283 22.0763 47.7763 22.0763C47.6224 22.0763 47.4658 22.0553 47.3098 22.0116L33.5279 18.1421C32.6124 17.8849 32.0787 16.9348 32.3359 16.0195C32.5931 15.1046 33.543 14.5707 34.4588 14.8278L48.2411 18.6973C49.156 18.9548 49.69 19.9049 49.4328 20.8202ZM24.9627 62.7419C22.4097 62.7419 20.3326 64.8186 20.3326 67.3711C20.3326 69.9236 22.4097 72 24.9627 72C27.5157 72 29.5925 69.9236 29.5925 67.3711C29.5925 64.8186 27.5157 62.7419 24.9627 62.7419ZM53.0641 62.7419C50.5111 62.7419 48.434 64.8186 48.434 67.3711C48.434 69.9236 50.5111 72 53.0641 72C55.6171 72 57.6942 69.9236 57.6942 67.3711C57.6939 64.8186 55.6171 62.7419 53.0641 62.7419ZM63.9718 25.0553L59.4973 49.5099C59.3476 50.3275 58.6352 50.9213 57.8041 50.9213H20.8504L21.8007 55.4004C22.0369 56.5133 23.0343 57.3212 24.1722 57.3212H55.4177C56.3683 57.3212 57.1392 58.092 57.1392 59.0424C57.1392 59.9928 56.3683 60.7636 55.4177 60.7636H24.1719C21.4178 60.7636 19.0039 58.8083 18.4324 56.1147L17.0469 49.5846L7.8304 12.1486H1.7215C0.770886 12.1486 0 11.3779 0 10.4275C0 9.47704 0.770886 8.70631 1.7215 8.70631H9.17936C9.97159 8.70631 10.6616 9.24675 10.8509 10.0161L14.0409 22.9727L24.3592 22.9837L29.0716 6.20684C29.0719 6.20615 29.0716 6.2058 29.0719 6.20511L30.4622 1.25643C30.7194 0.341457 31.6697 -0.192792 32.5852 0.0646938L57.529 7.06776C58.4445 7.3249 58.9781 8.27498 58.7209 9.18995C58.5075 9.94967 57.8165 10.4461 57.0645 10.4464C56.9106 10.4464 56.7539 10.4257 56.5983 10.3817L56.2175 10.2746L55.772 11.8609L56.1528 11.9676C57.0679 12.2247 57.6016 13.1748 57.3448 14.0901L54.8376 23.0161L62.2813 23.024C62.7916 23.0243 63.2757 23.2515 63.6024 23.6436C63.9281 24.0364 64.0638 24.5531 63.9718 25.0553ZM33.311 3.84368L32.8654 5.4299L52.4561 10.9304L52.9016 9.34417L33.311 3.84368ZM28.8079 22.9882L50.5273 23.0116L51.5812 19.2598C51.7045 18.8202 51.6483 18.3496 51.4249 17.9517C51.2014 17.5534 50.8289 17.2608 50.3892 17.1373L33.5661 12.414C33.1268 12.2905 32.6561 12.3466 32.2577 12.5703C31.8597 12.7937 31.5667 13.1662 31.4431 13.6058L28.8079 22.9882Z" fill="#5B21FF"/>
</svg>
