<svg width="83" height="72" viewBox="0 0 83 72" fill="none" xmlns="http://www.w3.org/2000/svg">
<path d="M71.9603 0.141289C66.1129 -0.753213 60.6097 2.68434 58.6877 8.05263H51.6105V14.1433H58.1838C59.0214 19.1851 62.9558 23.3607 68.2851 24.1773C74.9188 25.1923 81.1228 20.635 82.1417 13.9979C83.1549 7.36062 78.5976 1.15632 71.9603 0.141289Z" fill="#5B21FF"/>
<path d="M26.1336 49.0881C26.1336 47.9824 25.2373 47.0844 24.1299 47.0844H15.4537C14.3463 47.0844 13.4502 47.9824 13.4502 49.0881C13.4502 50.1918 14.3463 51.0916 15.4537 51.0916H24.1301C25.2373 51.0916 26.1336 50.192 26.1336 49.0881Z" fill="#5B21FF"/>
<path d="M63.1582 32.9759L45.685 49.4464L39.5836 50.9568V37.0364H0V71.7487H39.5836V62.194L45.2963 61.2728C48.0203 60.8842 50.0204 60.1973 52.4214 58.8593L59.8625 54.9657V71.7487H81.1459V38.2573C81.1459 27.2954 68.7857 27.2652 63.1582 32.9759ZM34.7123 66.877H4.87155V41.9078H34.7123V52.1618L28.8595 53.6098C26.2933 54.3161 24.728 56.9072 25.296 59.5071L25.3438 59.7075C25.9028 62.2647 28.3412 63.956 30.9341 63.587L34.7123 62.9782V66.877Z" fill="#5B21FF"/>
</svg>
