<svg width="64" height="72" viewBox="0 0 64 72" fill="none" xmlns="http://www.w3.org/2000/svg">
<path d="M48.9257 21.2602C48.5277 20.6446 48.0453 20.2249 47.5961 19.941C47.5938 19.1768 47.5436 18.096 47.3622 16.8496C47.4847 15.3624 47.9129 7.17325 42.9144 3.48106C39.8314 1.20361 36.3984 0 32.9868 0C30.214 0 27.5733 0.789891 25.5507 2.22408C23.7292 3.51597 22.726 4.92117 22.1949 5.91035C20.6242 5.96602 17.37 6.60801 15.9307 10.7673C14.5689 14.7016 15.6684 17.1322 16.4771 18.2587C16.4242 18.9103 16.4052 19.4831 16.4039 19.9406C15.9547 20.2246 15.4723 20.6442 15.0743 21.2599C14.1739 22.6529 14.0208 24.5209 14.6189 26.8132C15.7371 31.0992 18.3466 32.0426 19.7389 32.232C20.5966 33.9508 22.4815 37.4635 24.3677 39.2284C25.1212 39.9333 26.1008 40.5282 27.2792 40.9973C28.7832 41.5954 30.3717 41.8988 32 41.8988C33.6283 41.8988 35.2168 41.5954 36.7208 40.9973C37.8992 40.5282 38.8788 39.9333 39.6323 39.2284C41.5185 37.4635 43.4034 33.9508 44.2611 32.232C45.6531 32.0426 48.2626 31.0989 49.3811 26.8128C49.9792 24.5212 49.8261 22.6529 48.9257 21.2602ZM46.2018 25.9798C45.5203 28.5925 44.3022 28.9826 43.6364 28.9826C43.5891 28.9826 43.5536 28.9799 43.5326 28.9783C42.7722 28.7856 42.0689 29.1861 41.7364 29.9032C41.0857 31.3051 39.0359 35.2809 37.3902 36.8209C36.9377 37.2441 36.3045 37.6196 35.5086 37.9362C33.2753 38.8246 30.7243 38.8246 28.4914 37.9362C27.6955 37.6196 27.0623 37.2441 26.6098 36.8209C24.9641 35.2809 22.9143 31.3051 22.2636 29.9032C21.9869 29.307 21.4549 28.9305 20.846 28.9305C20.7224 28.9305 20.5956 28.946 20.4671 28.9786C20.4461 28.9806 20.4106 28.9829 20.3636 28.9829C19.6982 28.9829 18.48 28.5925 17.7982 25.9804C17.4626 24.6948 17.4656 23.6694 17.806 23.0936C18.0042 22.7589 18.2855 22.6463 18.3775 22.6173C19.2591 22.5215 19.7902 21.7477 19.7166 20.856C19.7149 20.8343 19.6574 20.0688 19.7304 18.9037C20.8611 18.4165 22.6678 17.4557 24.1909 15.8067C24.9661 14.9671 25.5333 13.9384 25.9372 12.9947C27.0383 13.8959 28.5972 14.9549 30.6599 15.87C34.1928 17.4372 41.2533 18.1826 44.2338 18.4373C44.357 19.8593 44.2851 20.8297 44.2831 20.8527C44.2055 21.747 44.7376 22.5215 45.6222 22.6173C45.7142 22.6463 45.9955 22.7593 46.1936 23.0936C46.5344 23.6691 46.5374 24.6945 46.2018 25.9798ZM56.7384 47.9765L42.3732 42.217C41.9598 42.0517 41.4975 42.0612 41.0907 42.2434C40.6845 42.4262 40.3694 42.7664 40.2182 43.1861L36.6071 53.1938L35.8921 51.1331L37.0297 48.3454C37.2367 47.8375 37.1782 47.2594 36.8729 46.8035C36.5677 46.348 36.0564 46.0746 35.5089 46.0746H28.4914C27.944 46.0746 27.4323 46.348 27.1274 46.8035C26.8221 47.2594 26.7636 47.8375 26.9706 48.3454L28.1083 51.1331L27.3932 53.1938L23.7821 43.1861C23.631 42.7664 23.3158 42.4259 22.9097 42.2434C22.5029 42.0609 22.0402 42.0513 21.6271 42.217L7.26161 47.9765C2.85036 49.745 0 53.9656 0 58.7283V70.353C0 71.2628 0.735757 72 1.64305 72H62.357C63.2642 72 64 71.2628 64 70.353V58.7283C64 53.9656 61.1496 49.7454 56.7384 47.9765ZM56.2392 63.4805C56.2392 64.3903 55.5035 65.1275 54.5962 65.1275H43.5648C42.6575 65.1275 41.9217 64.3903 41.9217 63.4805V58.3452C41.9217 57.4354 42.6575 56.6982 43.5648 56.6982H54.5962C55.5035 56.6982 56.2392 57.4354 56.2392 58.3452V63.4805Z" fill="#5B21FF"/>
</svg>
