<svg width="105" height="71" viewBox="0 0 105 71" fill="none" xmlns="http://www.w3.org/2000/svg">
<path d="M26.0104 51.5559C20.6854 51.5559 16.3845 55.8569 16.3845 61.1818C16.3845 66.5068 20.6854 70.8077 26.0104 70.8077C31.3354 70.8077 35.6363 66.5068 35.6363 61.1818C35.6363 55.8569 31.3354 51.5559 26.0104 51.5559ZM26.0104 64.8274C24.0033 64.8274 22.3239 63.148 22.3239 61.1409C22.3239 59.1338 24.0033 57.4543 26.0104 57.4543C28.0175 57.4543 29.6969 59.1338 29.6969 61.1409C29.6969 63.1889 28.0585 64.8274 26.0104 64.8274ZM86.5511 51.1463C81.2262 51.1463 76.9252 55.4472 76.9252 60.7722C76.9252 66.0972 81.2262 70.3981 86.5511 70.3981C91.8761 70.3981 96.177 66.0972 96.177 60.7722C96.177 55.4472 91.8761 51.1463 86.5511 51.1463ZM86.5511 64.4178C84.544 64.4178 82.8646 62.7383 82.8646 60.7312C82.8646 58.7241 84.544 57.0447 86.5511 57.0447C88.5582 57.0447 90.2376 58.7241 90.2376 60.7312C90.2376 62.7793 88.5992 64.4178 86.5511 64.4178ZM0 55.693C0 57.5772 1.51557 59.0518 3.35882 59.0518H12.6161C12.9847 59.0518 13.3124 58.7651 13.3943 58.4374C14.4593 52.4161 19.7024 48.2381 26.0104 48.2381C32.3184 48.2381 37.6024 52.4161 38.6265 58.4374C38.7084 58.8061 38.9951 59.0518 39.4047 59.0518H40.7564H53.4135V44.1829H0V55.693ZM104.083 52.1703H102.034V43.1589C102.034 40.0868 99.5358 37.5881 96.4228 37.5881H86.4692C86.2644 37.5881 86.0596 37.4653 85.8957 37.3424L70.3305 22.1867C69.6341 21.4904 68.651 21.0808 67.627 21.0398H56.3627V59.0518H73.1158C73.4845 59.0518 73.8122 58.7651 73.8941 58.4374C74.9591 52.4161 80.2021 47.8284 86.5101 47.8284C92.8182 47.8284 98.1022 52.4161 99.1262 58.4374C99.2081 58.8061 99.4949 59.0518 99.9045 59.0518H101.215C103.222 59.0518 104.779 57.4543 104.779 55.4882V52.9076C104.861 52.539 104.492 52.1703 104.083 52.1703ZM78.4818 37.6291H61.5238C61.1142 37.6291 60.7455 37.2604 60.7455 36.8508V26.0371C60.7455 25.6275 61.1142 25.2588 61.5238 25.2588H67.2174C67.4222 25.2588 67.627 25.3817 67.8318 25.5046L79.0962 36.2774C79.4648 36.8099 79.1371 37.6291 78.4818 37.6291Z" fill="#5B21FF"/>
<path d="M24.0327 38.5987H7.30249V21.8685H13.7562V27.2123H17.579V21.8685H24.0327V38.5987ZM45.8601 38.5987H29.171V21.8685H35.6246V27.2123H39.4475V21.8685H45.9012V38.5987H45.8601ZM35.0903 16.7302H18.36V0H24.8137V5.3438H28.6366V0H35.0903V16.7302Z" fill="#5B21FF"/>
</svg>
