<svg width="72" height="72" viewBox="0 0 72 72" fill="none" xmlns="http://www.w3.org/2000/svg">
<rect width="72" height="72" fill="white"/>
<mask id="path-2-outside-1_337_344" maskUnits="userSpaceOnUse" x="14.7031" y="17.2708" width="48" height="47" fill="black">
<rect fill="white" x="14.7031" y="17.2708" width="48" height="47"/>
<path d="M37.8178 63.8777C37.1446 63.8777 36.4719 63.6225 35.9596 63.1128C35.9189 63.0723 35.8866 63.0243 35.8646 62.9714C35.8426 62.9185 35.8312 62.8618 35.8312 62.8045C35.8312 62.7472 35.8426 62.6905 35.8646 62.6376C35.8866 62.5847 35.9189 62.5366 35.9596 62.4962C36.0003 62.4557 36.0485 62.4235 36.1017 62.4016C36.1548 62.3797 36.2118 62.3684 36.2693 62.3684C36.3268 62.3684 36.3837 62.3797 36.4369 62.4016C36.49 62.4235 36.5383 62.4557 36.5789 62.4962C37.2631 63.1766 38.3752 63.1758 39.0577 62.4953C39.74 61.8152 39.7395 60.7086 39.056 60.0286C39.0153 59.9881 38.983 59.9401 38.961 59.8872C38.939 59.8343 38.9276 59.7776 38.9276 59.7203C38.9276 59.663 38.939 59.6063 38.961 59.5534C38.983 59.5005 39.0153 59.4524 39.056 59.412C39.0966 59.3714 39.1449 59.3393 39.198 59.3174C39.2511 59.2954 39.3081 59.2841 39.3656 59.2841C39.4231 59.2841 39.4801 59.2954 39.5332 59.3174C39.5863 59.3393 39.6346 59.3714 39.6752 59.412C40.6999 60.4315 40.7007 62.0912 39.677 63.1121C39.1646 63.6221 38.4909 63.8777 37.8178 63.8777ZM42.1548 59.5617C41.4521 59.5617 40.7917 59.2891 40.2952 58.7942C40.2545 58.7538 40.2222 58.7057 40.2002 58.6528C40.1782 58.5999 40.1668 58.5432 40.1668 58.4859C40.1668 58.4286 40.1782 58.3719 40.2002 58.319C40.2222 58.2661 40.2545 58.2181 40.2952 58.1776C40.3359 58.1371 40.3841 58.1049 40.4372 58.083C40.4904 58.061 40.5473 58.0498 40.6048 58.0498C40.6623 58.0498 40.7193 58.061 40.7724 58.083C40.8255 58.1049 40.8738 58.1371 40.9144 58.1776C41.5756 58.8364 42.7299 58.8382 43.3915 58.1793C44.0745 57.4993 44.074 56.3922 43.3906 55.7118L39.9846 52.3182C39.944 52.2778 39.9117 52.2297 39.8897 52.1768C39.8677 52.1239 39.8564 52.0672 39.8564 52.0099C39.8564 51.9527 39.8677 51.896 39.8897 51.8431C39.9117 51.7902 39.944 51.7421 39.9846 51.7016C40.0253 51.6611 40.0735 51.629 40.1267 51.6071C40.1798 51.5852 40.2367 51.5739 40.2942 51.5739C40.3517 51.5739 40.4087 51.5852 40.4618 51.6071C40.5149 51.629 40.5632 51.6611 40.6038 51.7016L44.0098 55.0951C45.035 56.1155 45.035 57.7761 44.0107 58.7961C43.5156 59.2896 42.8563 59.5617 42.1548 59.5617ZM46.4884 55.2436C45.8152 55.2436 45.1426 54.9885 44.6302 54.4782L41.2242 51.0864C41.1835 51.0459 41.1513 50.9978 41.1293 50.9449C41.1073 50.892 41.0959 50.8353 41.0959 50.778C41.0959 50.7208 41.1073 50.6641 41.1293 50.6112C41.1513 50.5583 41.1835 50.5102 41.2242 50.4697C41.2648 50.4292 41.3131 50.3971 41.3662 50.3752C41.4193 50.3533 41.4763 50.342 41.5338 50.342C41.5913 50.342 41.6482 50.3533 41.7013 50.3752C41.7545 50.3971 41.8027 50.4292 41.8434 50.4697L45.2494 53.8616C45.9328 54.5421 47.044 54.5421 47.7273 53.8616C48.4107 53.181 48.4107 52.0736 47.7273 51.3931L44.3204 48.0022C44.1493 47.8319 44.1493 47.5558 44.3204 47.3855C44.4916 47.2152 44.7688 47.2151 44.9397 47.3855L48.3465 50.7764C49.3717 51.797 49.3717 53.4579 48.3465 54.4784C47.8344 54.9885 47.1617 55.2436 46.4884 55.2436ZM50.8241 50.926C50.1514 50.926 49.4788 50.6712 48.9663 50.1618L45.559 46.768C45.5183 46.7275 45.4861 46.6794 45.4641 46.6265C45.4421 46.5736 45.4307 46.5169 45.4307 46.4597C45.4307 46.4024 45.4421 46.3457 45.4641 46.2928C45.4861 46.2399 45.5183 46.1918 45.559 46.1514C45.5997 46.1108 45.6479 46.0787 45.701 46.0567C45.7542 46.0348 45.8111 46.0235 45.8686 46.0235C45.9261 46.0235 45.9831 46.0348 46.0362 46.0567C46.0893 46.0787 46.1376 46.1108 46.1782 46.1514L49.5851 49.5449C50.2686 50.2238 51.3797 50.2246 52.0623 49.5449C52.7456 48.8643 52.7456 47.757 52.0623 47.0764L40.6049 35.6675C40.5642 35.627 40.532 35.579 40.5099 35.5261C40.4879 35.4732 40.4766 35.4164 40.4766 35.3592C40.4766 35.3019 40.4879 35.2452 40.5099 35.1923C40.532 35.1394 40.5642 35.0913 40.6049 35.0509C40.6456 35.0103 40.6938 34.9782 40.747 34.9562C40.8001 34.9343 40.857 34.923 40.9146 34.923C40.9721 34.923 41.029 34.9343 41.0821 34.9562C41.1353 34.9782 41.1835 35.0103 41.2242 35.0509L52.6816 46.4596C53.7066 47.4801 53.7066 49.141 52.6816 50.1614C52.1702 50.6712 51.4974 50.926 50.8241 50.926ZM18.6459 44.4026C18.565 44.4026 18.4858 44.3804 18.4168 44.3384C18.3479 44.2963 18.292 44.2361 18.2554 44.1644C16.3587 40.4596 15.7346 36.8174 15.709 36.664C15.69 36.55 15.7172 36.4332 15.7846 36.3391C15.8521 36.2451 15.9542 36.1815 16.0687 36.1624C16.3095 36.1266 16.5327 36.2837 16.5729 36.5206C16.5789 36.5572 17.2028 40.1883 19.0355 43.7684C19.0696 43.8349 19.086 43.9089 19.0831 43.9835C19.0802 44.058 19.0582 44.1306 19.0191 44.1942C18.98 44.2579 18.9251 44.3104 18.8598 44.3469C18.7944 44.3834 18.7208 44.4025 18.6459 44.4026ZM31.7597 28.8737C31.7017 28.8738 31.6443 28.8623 31.5908 28.84C28.5501 27.5721 26.4873 26.5044 26.4668 26.4937C26.3639 26.4401 26.2865 26.348 26.2517 26.2377C26.2169 26.1273 26.2275 26.0077 26.2812 25.9051C26.3077 25.8542 26.344 25.8091 26.3881 25.7722C26.4322 25.7353 26.4832 25.7075 26.5381 25.6903C26.5931 25.6732 26.6509 25.667 26.7082 25.6721C26.7656 25.6773 26.8213 25.6936 26.8723 25.7203C26.8924 25.731 28.9247 26.783 31.9287 28.035C32.0219 28.0741 32.0986 28.144 32.146 28.2329C32.1933 28.3219 32.2083 28.4244 32.1884 28.5231C32.1685 28.6218 32.115 28.7107 32.0369 28.7746C31.9587 28.8384 31.8608 28.8735 31.7597 28.8737ZM52.5752 44.9375C52.4948 44.9375 52.4158 44.9154 52.3471 44.8737C52.2784 44.832 52.2226 44.7722 52.1858 44.701C52.149 44.6297 52.1326 44.5497 52.1384 44.4698C52.1443 44.3899 52.1721 44.3131 52.2189 44.248C54.8333 40.5977 55.3371 35.372 55.3418 35.3197C55.3641 35.0803 55.5706 34.9006 55.8179 34.9248C55.9335 34.9354 56.0403 34.9913 56.1146 35.0802C56.1889 35.1691 56.2248 35.2837 56.2143 35.3989C56.1937 35.622 55.6827 40.9142 52.9324 44.7548C52.8918 44.8114 52.8382 44.8575 52.776 44.8893C52.7139 44.921 52.6451 44.9376 52.5752 44.9375ZM34.1017 62.6451H34.1012C33.3998 62.6451 32.74 62.3726 32.2439 61.8787C31.22 60.8594 31.22 59.1992 32.2434 58.178L34.1017 56.3275C35.0956 55.3387 36.826 55.3395 37.8174 56.3284C38.8417 57.3484 38.8417 59.0085 37.8174 60.0286L35.9604 61.8778C35.4634 62.3726 34.8034 62.6451 34.1017 62.6451ZM35.9599 56.4339C35.7297 56.4333 35.5016 56.4782 35.2889 56.5658C35.0762 56.6535 34.883 56.7822 34.7205 56.9446L32.8631 58.7942C32.181 59.4752 32.1806 60.5822 32.8631 61.2619C33.0253 61.4244 33.2182 61.5532 33.4308 61.6409C33.6433 61.7286 33.8712 61.7735 34.1012 61.7729H34.1017C34.5696 61.7729 35.0097 61.5912 35.341 61.2611L37.1981 59.412C37.881 58.7318 37.881 57.6252 37.1981 56.9452C37.036 56.7826 36.843 56.6536 36.6305 56.5659C36.4179 56.4781 36.19 56.4333 35.9599 56.4339ZM29.7659 58.3279C29.0645 58.3279 28.405 58.0558 27.9089 57.5618C26.8851 56.541 26.8851 54.8808 27.9089 53.86L30.3861 51.3932C31.3791 50.4056 33.1113 50.4047 34.1017 51.3932C35.1264 52.4137 35.1264 54.0738 34.1017 55.0942L31.6246 57.5609C31.128 58.0554 30.4677 58.3279 29.7659 58.3279ZM32.2446 51.4996C32.0145 51.4989 31.7864 51.5436 31.5737 51.6312C31.361 51.7187 31.1678 51.8474 31.0053 52.0098L28.5282 54.4766C27.8456 55.1571 27.8456 56.2646 28.5282 56.9451C28.6903 57.1074 28.8832 57.2362 29.0956 57.3239C29.3081 57.4115 29.5359 57.4564 29.7659 57.4558C29.9961 57.4563 30.2242 57.4113 30.437 57.3235C30.6497 57.2357 30.8429 57.1068 31.0053 56.9443L33.4823 54.4776C34.1653 53.7975 34.1653 52.6901 33.4823 52.0099C33.3202 51.8475 33.1274 51.7188 32.9149 51.6312C32.7024 51.5436 32.4746 51.4989 32.2446 51.4996ZM25.4309 54.0098C24.7286 54.0098 24.0692 53.7381 23.5739 53.2439C23.0773 52.7504 22.8037 52.0932 22.8032 51.3943C22.8021 51.0504 22.8695 50.7096 23.0015 50.3919C23.1335 50.0741 23.3275 49.7855 23.5722 49.5429L25.4309 47.6929C26.4235 46.7035 28.1557 46.7043 29.1474 47.6937C29.6439 48.187 29.9173 48.8437 29.9173 49.5429C29.9173 50.2414 29.6439 50.8986 29.1474 51.3929L27.2887 53.2439C26.7922 53.7381 26.1323 54.0098 25.4309 54.0098ZM27.2888 47.7987C27.0587 47.798 26.8307 47.8429 26.6181 47.9306C26.4055 48.0183 26.2125 48.1472 26.0502 48.3097L24.1916 50.1598C24.0284 50.3215 23.8992 50.5139 23.8112 50.7257C23.7233 50.9376 23.6784 51.1647 23.6793 51.3939C23.6789 51.6231 23.7241 51.8502 23.8124 52.0618C23.9006 52.2735 24.0301 52.4657 24.1933 52.6273C24.8536 53.2858 26.0075 53.2858 26.6696 52.6273L28.5283 50.7764C28.6915 50.6148 28.8209 50.4226 28.909 50.2109C28.9971 49.9992 29.0421 49.7722 29.0416 49.543C29.0416 49.0771 28.8594 48.6398 28.5287 48.3109C28.3664 48.1481 28.1732 48.0189 27.9603 47.931C27.7475 47.8431 27.5192 47.7981 27.2888 47.7987ZM21.0956 49.693H21.0952C20.3933 49.693 19.7339 49.4213 19.2383 48.9271C18.2139 47.9064 18.2139 46.2463 19.2383 45.2262L20.4768 43.9928C21.4694 43.0039 23.1989 43.0055 24.1916 43.9936C24.6881 44.488 24.9614 45.1448 24.9619 45.8432C24.9623 46.5417 24.689 47.1985 24.1924 47.6929L22.9539 48.9263C22.4572 49.4208 21.7973 49.693 21.0956 49.693ZM22.3333 44.0989C22.1034 44.0984 21.8757 44.1432 21.6633 44.2309C21.4509 44.3185 21.2581 44.4473 21.0961 44.6096L19.8575 45.843C19.1749 46.5232 19.1749 47.63 19.8575 48.3106C20.0196 48.4729 20.2125 48.6016 20.425 48.6892C20.6374 48.7768 20.8652 48.8216 21.0952 48.8209H21.0956C21.5635 48.8209 22.0035 48.6394 22.3346 48.3097L23.5732 47.0763C23.9042 46.7467 24.0861 46.3089 24.0861 45.8434C24.0861 45.3778 23.9034 44.9401 23.5724 44.6104C23.2408 44.2808 22.8011 44.0989 22.3333 44.0989ZM30.3868 37.9741C29.7136 37.9741 29.0405 37.7186 28.5282 37.2083C27.5039 36.1884 27.5039 34.5291 28.5282 33.5091L32.5535 29.499C36.329 25.7392 44.8287 24.4935 45.1883 24.442C45.4252 24.404 45.6494 24.5731 45.684 24.812C45.7004 24.9266 45.6705 25.0429 45.6008 25.1355C45.5311 25.2281 45.4273 25.2893 45.3123 25.3056C45.2267 25.3175 36.7412 26.5619 33.1726 30.1156L29.1474 34.1258C28.4648 34.8055 28.4648 35.912 29.1474 36.5917C29.8304 37.2723 30.9414 37.2723 31.6245 36.5926C31.8521 36.366 37.2301 31.0756 39.9856 33.8167C40.0263 33.8572 40.0585 33.9052 40.0805 33.9581C40.1025 34.011 40.1139 34.0677 40.1139 34.125C40.1139 34.1823 40.1025 34.239 40.0805 34.2919C40.0585 34.3448 40.0263 34.3928 39.9856 34.4333C39.945 34.4739 39.8967 34.506 39.8436 34.5279C39.7904 34.5499 39.7335 34.5612 39.676 34.5612C39.6185 34.5612 39.5615 34.5499 39.5084 34.5279C39.4553 34.506 39.407 34.4739 39.3664 34.4333C37.5897 32.6668 33.6226 35.837 32.2438 37.2092C31.7319 37.7191 31.0592 37.9741 30.3868 37.9741ZM57.6368 35.1786C57.5793 35.1787 57.5223 35.1675 57.4692 35.1455C57.416 35.1236 57.3678 35.0914 57.3272 35.0509L45.56 23.3321C45.5193 23.2916 45.4871 23.2435 45.4651 23.1906C45.4431 23.1377 45.4317 23.081 45.4317 23.0238C45.4317 22.9665 45.4431 22.9098 45.4651 22.8569C45.4871 22.804 45.5193 22.7559 45.56 22.7154C45.6006 22.6749 45.6489 22.6428 45.702 22.6208C45.7552 22.5989 45.8121 22.5876 45.8696 22.5876C45.9271 22.5876 45.9841 22.5989 46.0372 22.6208C46.0903 22.6428 46.1386 22.6749 46.1792 22.7154L57.9464 34.4342C58.0077 34.4952 58.0494 34.5729 58.0663 34.6575C58.0833 34.7421 58.0746 34.8298 58.0415 34.9095C58.0083 34.9892 57.9522 35.0573 57.8801 35.1052C57.8081 35.1531 57.7234 35.1786 57.6368 35.1786ZM61.9725 33.3277C61.915 33.3278 61.858 33.3165 61.8049 33.2946C61.7517 33.2727 61.7035 33.2405 61.6629 33.1999L47.4178 19.0152C47.3771 18.9747 47.3449 18.9267 47.3229 18.8738C47.3009 18.8209 47.2895 18.7642 47.2895 18.7069C47.2895 18.6496 47.3009 18.5929 47.3229 18.54C47.3449 18.4871 47.3771 18.4391 47.4178 18.3986C47.4584 18.3581 47.5067 18.3259 47.5598 18.304C47.613 18.282 47.6699 18.2708 47.7274 18.2708C47.7849 18.2708 47.8419 18.282 47.895 18.304C47.9481 18.3259 47.9964 18.3581 48.037 18.3986L62.2821 32.5833C62.3434 32.6443 62.3851 32.722 62.4021 32.8066C62.419 32.8912 62.4103 32.9789 62.3772 33.0585C62.344 33.1382 62.2879 33.2064 62.2159 33.2543C62.1438 33.3022 62.0591 33.3277 61.9725 33.3277Z"/>
</mask>
<path d="M37.8178 63.8777C37.1446 63.8777 36.4719 63.6225 35.9596 63.1128C35.9189 63.0723 35.8866 63.0243 35.8646 62.9714C35.8426 62.9185 35.8312 62.8618 35.8312 62.8045C35.8312 62.7472 35.8426 62.6905 35.8646 62.6376C35.8866 62.5847 35.9189 62.5366 35.9596 62.4962C36.0003 62.4557 36.0485 62.4235 36.1017 62.4016C36.1548 62.3797 36.2118 62.3684 36.2693 62.3684C36.3268 62.3684 36.3837 62.3797 36.4369 62.4016C36.49 62.4235 36.5383 62.4557 36.5789 62.4962C37.2631 63.1766 38.3752 63.1758 39.0577 62.4953C39.74 61.8152 39.7395 60.7086 39.056 60.0286C39.0153 59.9881 38.983 59.9401 38.961 59.8872C38.939 59.8343 38.9276 59.7776 38.9276 59.7203C38.9276 59.663 38.939 59.6063 38.961 59.5534C38.983 59.5005 39.0153 59.4524 39.056 59.412C39.0966 59.3714 39.1449 59.3393 39.198 59.3174C39.2511 59.2954 39.3081 59.2841 39.3656 59.2841C39.4231 59.2841 39.4801 59.2954 39.5332 59.3174C39.5863 59.3393 39.6346 59.3714 39.6752 59.412C40.6999 60.4315 40.7007 62.0912 39.677 63.1121C39.1646 63.6221 38.4909 63.8777 37.8178 63.8777ZM42.1548 59.5617C41.4521 59.5617 40.7917 59.2891 40.2952 58.7942C40.2545 58.7538 40.2222 58.7057 40.2002 58.6528C40.1782 58.5999 40.1668 58.5432 40.1668 58.4859C40.1668 58.4286 40.1782 58.3719 40.2002 58.319C40.2222 58.2661 40.2545 58.2181 40.2952 58.1776C40.3359 58.1371 40.3841 58.1049 40.4372 58.083C40.4904 58.061 40.5473 58.0498 40.6048 58.0498C40.6623 58.0498 40.7193 58.061 40.7724 58.083C40.8255 58.1049 40.8738 58.1371 40.9144 58.1776C41.5756 58.8364 42.7299 58.8382 43.3915 58.1793C44.0745 57.4993 44.074 56.3922 43.3906 55.7118L39.9846 52.3182C39.944 52.2778 39.9117 52.2297 39.8897 52.1768C39.8677 52.1239 39.8564 52.0672 39.8564 52.0099C39.8564 51.9527 39.8677 51.896 39.8897 51.8431C39.9117 51.7902 39.944 51.7421 39.9846 51.7016C40.0253 51.6611 40.0735 51.629 40.1267 51.6071C40.1798 51.5852 40.2367 51.5739 40.2942 51.5739C40.3517 51.5739 40.4087 51.5852 40.4618 51.6071C40.5149 51.629 40.5632 51.6611 40.6038 51.7016L44.0098 55.0951C45.035 56.1155 45.035 57.7761 44.0107 58.7961C43.5156 59.2896 42.8563 59.5617 42.1548 59.5617ZM46.4884 55.2436C45.8152 55.2436 45.1426 54.9885 44.6302 54.4782L41.2242 51.0864C41.1835 51.0459 41.1513 50.9978 41.1293 50.9449C41.1073 50.892 41.0959 50.8353 41.0959 50.778C41.0959 50.7208 41.1073 50.6641 41.1293 50.6112C41.1513 50.5583 41.1835 50.5102 41.2242 50.4697C41.2648 50.4292 41.3131 50.3971 41.3662 50.3752C41.4193 50.3533 41.4763 50.342 41.5338 50.342C41.5913 50.342 41.6482 50.3533 41.7013 50.3752C41.7545 50.3971 41.8027 50.4292 41.8434 50.4697L45.2494 53.8616C45.9328 54.5421 47.044 54.5421 47.7273 53.8616C48.4107 53.181 48.4107 52.0736 47.7273 51.3931L44.3204 48.0022C44.1493 47.8319 44.1493 47.5558 44.3204 47.3855C44.4916 47.2152 44.7688 47.2151 44.9397 47.3855L48.3465 50.7764C49.3717 51.797 49.3717 53.4579 48.3465 54.4784C47.8344 54.9885 47.1617 55.2436 46.4884 55.2436ZM50.8241 50.926C50.1514 50.926 49.4788 50.6712 48.9663 50.1618L45.559 46.768C45.5183 46.7275 45.4861 46.6794 45.4641 46.6265C45.4421 46.5736 45.4307 46.5169 45.4307 46.4597C45.4307 46.4024 45.4421 46.3457 45.4641 46.2928C45.4861 46.2399 45.5183 46.1918 45.559 46.1514C45.5997 46.1108 45.6479 46.0787 45.701 46.0567C45.7542 46.0348 45.8111 46.0235 45.8686 46.0235C45.9261 46.0235 45.9831 46.0348 46.0362 46.0567C46.0893 46.0787 46.1376 46.1108 46.1782 46.1514L49.5851 49.5449C50.2686 50.2238 51.3797 50.2246 52.0623 49.5449C52.7456 48.8643 52.7456 47.757 52.0623 47.0764L40.6049 35.6675C40.5642 35.627 40.532 35.579 40.5099 35.5261C40.4879 35.4732 40.4766 35.4164 40.4766 35.3592C40.4766 35.3019 40.4879 35.2452 40.5099 35.1923C40.532 35.1394 40.5642 35.0913 40.6049 35.0509C40.6456 35.0103 40.6938 34.9782 40.747 34.9562C40.8001 34.9343 40.857 34.923 40.9146 34.923C40.9721 34.923 41.029 34.9343 41.0821 34.9562C41.1353 34.9782 41.1835 35.0103 41.2242 35.0509L52.6816 46.4596C53.7066 47.4801 53.7066 49.141 52.6816 50.1614C52.1702 50.6712 51.4974 50.926 50.8241 50.926ZM18.6459 44.4026C18.565 44.4026 18.4858 44.3804 18.4168 44.3384C18.3479 44.2963 18.292 44.2361 18.2554 44.1644C16.3587 40.4596 15.7346 36.8174 15.709 36.664C15.69 36.55 15.7172 36.4332 15.7846 36.3391C15.8521 36.2451 15.9542 36.1815 16.0687 36.1624C16.3095 36.1266 16.5327 36.2837 16.5729 36.5206C16.5789 36.5572 17.2028 40.1883 19.0355 43.7684C19.0696 43.8349 19.086 43.9089 19.0831 43.9835C19.0802 44.058 19.0582 44.1306 19.0191 44.1942C18.98 44.2579 18.9251 44.3104 18.8598 44.3469C18.7944 44.3834 18.7208 44.4025 18.6459 44.4026ZM31.7597 28.8737C31.7017 28.8738 31.6443 28.8623 31.5908 28.84C28.5501 27.5721 26.4873 26.5044 26.4668 26.4937C26.3639 26.4401 26.2865 26.348 26.2517 26.2377C26.2169 26.1273 26.2275 26.0077 26.2812 25.9051C26.3077 25.8542 26.344 25.8091 26.3881 25.7722C26.4322 25.7353 26.4832 25.7075 26.5381 25.6903C26.5931 25.6732 26.6509 25.667 26.7082 25.6721C26.7656 25.6773 26.8213 25.6936 26.8723 25.7203C26.8924 25.731 28.9247 26.783 31.9287 28.035C32.0219 28.0741 32.0986 28.144 32.146 28.2329C32.1933 28.3219 32.2083 28.4244 32.1884 28.5231C32.1685 28.6218 32.115 28.7107 32.0369 28.7746C31.9587 28.8384 31.8608 28.8735 31.7597 28.8737ZM52.5752 44.9375C52.4948 44.9375 52.4158 44.9154 52.3471 44.8737C52.2784 44.832 52.2226 44.7722 52.1858 44.701C52.149 44.6297 52.1326 44.5497 52.1384 44.4698C52.1443 44.3899 52.1721 44.3131 52.2189 44.248C54.8333 40.5977 55.3371 35.372 55.3418 35.3197C55.3641 35.0803 55.5706 34.9006 55.8179 34.9248C55.9335 34.9354 56.0403 34.9913 56.1146 35.0802C56.1889 35.1691 56.2248 35.2837 56.2143 35.3989C56.1937 35.622 55.6827 40.9142 52.9324 44.7548C52.8918 44.8114 52.8382 44.8575 52.776 44.8893C52.7139 44.921 52.6451 44.9376 52.5752 44.9375ZM34.1017 62.6451H34.1012C33.3998 62.6451 32.74 62.3726 32.2439 61.8787C31.22 60.8594 31.22 59.1992 32.2434 58.178L34.1017 56.3275C35.0956 55.3387 36.826 55.3395 37.8174 56.3284C38.8417 57.3484 38.8417 59.0085 37.8174 60.0286L35.9604 61.8778C35.4634 62.3726 34.8034 62.6451 34.1017 62.6451ZM35.9599 56.4339C35.7297 56.4333 35.5016 56.4782 35.2889 56.5658C35.0762 56.6535 34.883 56.7822 34.7205 56.9446L32.8631 58.7942C32.181 59.4752 32.1806 60.5822 32.8631 61.2619C33.0253 61.4244 33.2182 61.5532 33.4308 61.6409C33.6433 61.7286 33.8712 61.7735 34.1012 61.7729H34.1017C34.5696 61.7729 35.0097 61.5912 35.341 61.2611L37.1981 59.412C37.881 58.7318 37.881 57.6252 37.1981 56.9452C37.036 56.7826 36.843 56.6536 36.6305 56.5659C36.4179 56.4781 36.19 56.4333 35.9599 56.4339ZM29.7659 58.3279C29.0645 58.3279 28.405 58.0558 27.9089 57.5618C26.8851 56.541 26.8851 54.8808 27.9089 53.86L30.3861 51.3932C31.3791 50.4056 33.1113 50.4047 34.1017 51.3932C35.1264 52.4137 35.1264 54.0738 34.1017 55.0942L31.6246 57.5609C31.128 58.0554 30.4677 58.3279 29.7659 58.3279ZM32.2446 51.4996C32.0145 51.4989 31.7864 51.5436 31.5737 51.6312C31.361 51.7187 31.1678 51.8474 31.0053 52.0098L28.5282 54.4766C27.8456 55.1571 27.8456 56.2646 28.5282 56.9451C28.6903 57.1074 28.8832 57.2362 29.0956 57.3239C29.3081 57.4115 29.5359 57.4564 29.7659 57.4558C29.9961 57.4563 30.2242 57.4113 30.437 57.3235C30.6497 57.2357 30.8429 57.1068 31.0053 56.9443L33.4823 54.4776C34.1653 53.7975 34.1653 52.6901 33.4823 52.0099C33.3202 51.8475 33.1274 51.7188 32.9149 51.6312C32.7024 51.5436 32.4746 51.4989 32.2446 51.4996ZM25.4309 54.0098C24.7286 54.0098 24.0692 53.7381 23.5739 53.2439C23.0773 52.7504 22.8037 52.0932 22.8032 51.3943C22.8021 51.0504 22.8695 50.7096 23.0015 50.3919C23.1335 50.0741 23.3275 49.7855 23.5722 49.5429L25.4309 47.6929C26.4235 46.7035 28.1557 46.7043 29.1474 47.6937C29.6439 48.187 29.9173 48.8437 29.9173 49.5429C29.9173 50.2414 29.6439 50.8986 29.1474 51.3929L27.2887 53.2439C26.7922 53.7381 26.1323 54.0098 25.4309 54.0098ZM27.2888 47.7987C27.0587 47.798 26.8307 47.8429 26.6181 47.9306C26.4055 48.0183 26.2125 48.1472 26.0502 48.3097L24.1916 50.1598C24.0284 50.3215 23.8992 50.5139 23.8112 50.7257C23.7233 50.9376 23.6784 51.1647 23.6793 51.3939C23.6789 51.6231 23.7241 51.8502 23.8124 52.0618C23.9006 52.2735 24.0301 52.4657 24.1933 52.6273C24.8536 53.2858 26.0075 53.2858 26.6696 52.6273L28.5283 50.7764C28.6915 50.6148 28.8209 50.4226 28.909 50.2109C28.9971 49.9992 29.0421 49.7722 29.0416 49.543C29.0416 49.0771 28.8594 48.6398 28.5287 48.3109C28.3664 48.1481 28.1732 48.0189 27.9603 47.931C27.7475 47.8431 27.5192 47.7981 27.2888 47.7987ZM21.0956 49.693H21.0952C20.3933 49.693 19.7339 49.4213 19.2383 48.9271C18.2139 47.9064 18.2139 46.2463 19.2383 45.2262L20.4768 43.9928C21.4694 43.0039 23.1989 43.0055 24.1916 43.9936C24.6881 44.488 24.9614 45.1448 24.9619 45.8432C24.9623 46.5417 24.689 47.1985 24.1924 47.6929L22.9539 48.9263C22.4572 49.4208 21.7973 49.693 21.0956 49.693ZM22.3333 44.0989C22.1034 44.0984 21.8757 44.1432 21.6633 44.2309C21.4509 44.3185 21.2581 44.4473 21.0961 44.6096L19.8575 45.843C19.1749 46.5232 19.1749 47.63 19.8575 48.3106C20.0196 48.4729 20.2125 48.6016 20.425 48.6892C20.6374 48.7768 20.8652 48.8216 21.0952 48.8209H21.0956C21.5635 48.8209 22.0035 48.6394 22.3346 48.3097L23.5732 47.0763C23.9042 46.7467 24.0861 46.3089 24.0861 45.8434C24.0861 45.3778 23.9034 44.9401 23.5724 44.6104C23.2408 44.2808 22.8011 44.0989 22.3333 44.0989ZM30.3868 37.9741C29.7136 37.9741 29.0405 37.7186 28.5282 37.2083C27.5039 36.1884 27.5039 34.5291 28.5282 33.5091L32.5535 29.499C36.329 25.7392 44.8287 24.4935 45.1883 24.442C45.4252 24.404 45.6494 24.5731 45.684 24.812C45.7004 24.9266 45.6705 25.0429 45.6008 25.1355C45.5311 25.2281 45.4273 25.2893 45.3123 25.3056C45.2267 25.3175 36.7412 26.5619 33.1726 30.1156L29.1474 34.1258C28.4648 34.8055 28.4648 35.912 29.1474 36.5917C29.8304 37.2723 30.9414 37.2723 31.6245 36.5926C31.8521 36.366 37.2301 31.0756 39.9856 33.8167C40.0263 33.8572 40.0585 33.9052 40.0805 33.9581C40.1025 34.011 40.1139 34.0677 40.1139 34.125C40.1139 34.1823 40.1025 34.239 40.0805 34.2919C40.0585 34.3448 40.0263 34.3928 39.9856 34.4333C39.945 34.4739 39.8967 34.506 39.8436 34.5279C39.7904 34.5499 39.7335 34.5612 39.676 34.5612C39.6185 34.5612 39.5615 34.5499 39.5084 34.5279C39.4553 34.506 39.407 34.4739 39.3664 34.4333C37.5897 32.6668 33.6226 35.837 32.2438 37.2092C31.7319 37.7191 31.0592 37.9741 30.3868 37.9741ZM57.6368 35.1786C57.5793 35.1787 57.5223 35.1675 57.4692 35.1455C57.416 35.1236 57.3678 35.0914 57.3272 35.0509L45.56 23.3321C45.5193 23.2916 45.4871 23.2435 45.4651 23.1906C45.4431 23.1377 45.4317 23.081 45.4317 23.0238C45.4317 22.9665 45.4431 22.9098 45.4651 22.8569C45.4871 22.804 45.5193 22.7559 45.56 22.7154C45.6006 22.6749 45.6489 22.6428 45.702 22.6208C45.7552 22.5989 45.8121 22.5876 45.8696 22.5876C45.9271 22.5876 45.9841 22.5989 46.0372 22.6208C46.0903 22.6428 46.1386 22.6749 46.1792 22.7154L57.9464 34.4342C58.0077 34.4952 58.0494 34.5729 58.0663 34.6575C58.0833 34.7421 58.0746 34.8298 58.0415 34.9095C58.0083 34.9892 57.9522 35.0573 57.8801 35.1052C57.8081 35.1531 57.7234 35.1786 57.6368 35.1786ZM61.9725 33.3277C61.915 33.3278 61.858 33.3165 61.8049 33.2946C61.7517 33.2727 61.7035 33.2405 61.6629 33.1999L47.4178 19.0152C47.3771 18.9747 47.3449 18.9267 47.3229 18.8738C47.3009 18.8209 47.2895 18.7642 47.2895 18.7069C47.2895 18.6496 47.3009 18.5929 47.3229 18.54C47.3449 18.4871 47.3771 18.4391 47.4178 18.3986C47.4584 18.3581 47.5067 18.3259 47.5598 18.304C47.613 18.282 47.6699 18.2708 47.7274 18.2708C47.7849 18.2708 47.8419 18.282 47.895 18.304C47.9481 18.3259 47.9964 18.3581 48.037 18.3986L62.2821 32.5833C62.3434 32.6443 62.3851 32.722 62.4021 32.8066C62.419 32.8912 62.4103 32.9789 62.3772 33.0585C62.344 33.1382 62.2879 33.2064 62.2159 33.2543C62.1438 33.3022 62.0591 33.3277 61.9725 33.3277Z" fill="#5B21FF"/>
<path d="M37.8178 63.8777C37.1446 63.8777 36.4719 63.6225 35.9596 63.1128C35.9189 63.0723 35.8866 63.0243 35.8646 62.9714C35.8426 62.9185 35.8312 62.8618 35.8312 62.8045C35.8312 62.7472 35.8426 62.6905 35.8646 62.6376C35.8866 62.5847 35.9189 62.5366 35.9596 62.4962C36.0003 62.4557 36.0485 62.4235 36.1017 62.4016C36.1548 62.3797 36.2118 62.3684 36.2693 62.3684C36.3268 62.3684 36.3837 62.3797 36.4369 62.4016C36.49 62.4235 36.5383 62.4557 36.5789 62.4962C37.2631 63.1766 38.3752 63.1758 39.0577 62.4953C39.74 61.8152 39.7395 60.7086 39.056 60.0286C39.0153 59.9881 38.983 59.9401 38.961 59.8872C38.939 59.8343 38.9276 59.7776 38.9276 59.7203C38.9276 59.663 38.939 59.6063 38.961 59.5534C38.983 59.5005 39.0153 59.4524 39.056 59.412C39.0966 59.3714 39.1449 59.3393 39.198 59.3174C39.2511 59.2954 39.3081 59.2841 39.3656 59.2841C39.4231 59.2841 39.4801 59.2954 39.5332 59.3174C39.5863 59.3393 39.6346 59.3714 39.6752 59.412C40.6999 60.4315 40.7007 62.0912 39.677 63.1121C39.1646 63.6221 38.4909 63.8777 37.8178 63.8777ZM42.1548 59.5617C41.4521 59.5617 40.7917 59.2891 40.2952 58.7942C40.2545 58.7538 40.2222 58.7057 40.2002 58.6528C40.1782 58.5999 40.1668 58.5432 40.1668 58.4859C40.1668 58.4286 40.1782 58.3719 40.2002 58.319C40.2222 58.2661 40.2545 58.2181 40.2952 58.1776C40.3359 58.1371 40.3841 58.1049 40.4372 58.083C40.4904 58.061 40.5473 58.0498 40.6048 58.0498C40.6623 58.0498 40.7193 58.061 40.7724 58.083C40.8255 58.1049 40.8738 58.1371 40.9144 58.1776C41.5756 58.8364 42.7299 58.8382 43.3915 58.1793C44.0745 57.4993 44.074 56.3922 43.3906 55.7118L39.9846 52.3182C39.944 52.2778 39.9117 52.2297 39.8897 52.1768C39.8677 52.1239 39.8564 52.0672 39.8564 52.0099C39.8564 51.9527 39.8677 51.896 39.8897 51.8431C39.9117 51.7902 39.944 51.7421 39.9846 51.7016C40.0253 51.6611 40.0735 51.629 40.1267 51.6071C40.1798 51.5852 40.2367 51.5739 40.2942 51.5739C40.3517 51.5739 40.4087 51.5852 40.4618 51.6071C40.5149 51.629 40.5632 51.6611 40.6038 51.7016L44.0098 55.0951C45.035 56.1155 45.035 57.7761 44.0107 58.7961C43.5156 59.2896 42.8563 59.5617 42.1548 59.5617ZM46.4884 55.2436C45.8152 55.2436 45.1426 54.9885 44.6302 54.4782L41.2242 51.0864C41.1835 51.0459 41.1513 50.9978 41.1293 50.9449C41.1073 50.892 41.0959 50.8353 41.0959 50.778C41.0959 50.7208 41.1073 50.6641 41.1293 50.6112C41.1513 50.5583 41.1835 50.5102 41.2242 50.4697C41.2648 50.4292 41.3131 50.3971 41.3662 50.3752C41.4193 50.3533 41.4763 50.342 41.5338 50.342C41.5913 50.342 41.6482 50.3533 41.7013 50.3752C41.7545 50.3971 41.8027 50.4292 41.8434 50.4697L45.2494 53.8616C45.9328 54.5421 47.044 54.5421 47.7273 53.8616C48.4107 53.181 48.4107 52.0736 47.7273 51.3931L44.3204 48.0022C44.1493 47.8319 44.1493 47.5558 44.3204 47.3855C44.4916 47.2152 44.7688 47.2151 44.9397 47.3855L48.3465 50.7764C49.3717 51.797 49.3717 53.4579 48.3465 54.4784C47.8344 54.9885 47.1617 55.2436 46.4884 55.2436ZM50.8241 50.926C50.1514 50.926 49.4788 50.6712 48.9663 50.1618L45.559 46.768C45.5183 46.7275 45.4861 46.6794 45.4641 46.6265C45.4421 46.5736 45.4307 46.5169 45.4307 46.4597C45.4307 46.4024 45.4421 46.3457 45.4641 46.2928C45.4861 46.2399 45.5183 46.1918 45.559 46.1514C45.5997 46.1108 45.6479 46.0787 45.701 46.0567C45.7542 46.0348 45.8111 46.0235 45.8686 46.0235C45.9261 46.0235 45.9831 46.0348 46.0362 46.0567C46.0893 46.0787 46.1376 46.1108 46.1782 46.1514L49.5851 49.5449C50.2686 50.2238 51.3797 50.2246 52.0623 49.5449C52.7456 48.8643 52.7456 47.757 52.0623 47.0764L40.6049 35.6675C40.5642 35.627 40.532 35.579 40.5099 35.5261C40.4879 35.4732 40.4766 35.4164 40.4766 35.3592C40.4766 35.3019 40.4879 35.2452 40.5099 35.1923C40.532 35.1394 40.5642 35.0913 40.6049 35.0509C40.6456 35.0103 40.6938 34.9782 40.747 34.9562C40.8001 34.9343 40.857 34.923 40.9146 34.923C40.9721 34.923 41.029 34.9343 41.0821 34.9562C41.1353 34.9782 41.1835 35.0103 41.2242 35.0509L52.6816 46.4596C53.7066 47.4801 53.7066 49.141 52.6816 50.1614C52.1702 50.6712 51.4974 50.926 50.8241 50.926ZM18.6459 44.4026C18.565 44.4026 18.4858 44.3804 18.4168 44.3384C18.3479 44.2963 18.292 44.2361 18.2554 44.1644C16.3587 40.4596 15.7346 36.8174 15.709 36.664C15.69 36.55 15.7172 36.4332 15.7846 36.3391C15.8521 36.2451 15.9542 36.1815 16.0687 36.1624C16.3095 36.1266 16.5327 36.2837 16.5729 36.5206C16.5789 36.5572 17.2028 40.1883 19.0355 43.7684C19.0696 43.8349 19.086 43.9089 19.0831 43.9835C19.0802 44.058 19.0582 44.1306 19.0191 44.1942C18.98 44.2579 18.9251 44.3104 18.8598 44.3469C18.7944 44.3834 18.7208 44.4025 18.6459 44.4026ZM31.7597 28.8737C31.7017 28.8738 31.6443 28.8623 31.5908 28.84C28.5501 27.5721 26.4873 26.5044 26.4668 26.4937C26.3639 26.4401 26.2865 26.348 26.2517 26.2377C26.2169 26.1273 26.2275 26.0077 26.2812 25.9051C26.3077 25.8542 26.344 25.8091 26.3881 25.7722C26.4322 25.7353 26.4832 25.7075 26.5381 25.6903C26.5931 25.6732 26.6509 25.667 26.7082 25.6721C26.7656 25.6773 26.8213 25.6936 26.8723 25.7203C26.8924 25.731 28.9247 26.783 31.9287 28.035C32.0219 28.0741 32.0986 28.144 32.146 28.2329C32.1933 28.3219 32.2083 28.4244 32.1884 28.5231C32.1685 28.6218 32.115 28.7107 32.0369 28.7746C31.9587 28.8384 31.8608 28.8735 31.7597 28.8737ZM52.5752 44.9375C52.4948 44.9375 52.4158 44.9154 52.3471 44.8737C52.2784 44.832 52.2226 44.7722 52.1858 44.701C52.149 44.6297 52.1326 44.5497 52.1384 44.4698C52.1443 44.3899 52.1721 44.3131 52.2189 44.248C54.8333 40.5977 55.3371 35.372 55.3418 35.3197C55.3641 35.0803 55.5706 34.9006 55.8179 34.9248C55.9335 34.9354 56.0403 34.9913 56.1146 35.0802C56.1889 35.1691 56.2248 35.2837 56.2143 35.3989C56.1937 35.622 55.6827 40.9142 52.9324 44.7548C52.8918 44.8114 52.8382 44.8575 52.776 44.8893C52.7139 44.921 52.6451 44.9376 52.5752 44.9375ZM34.1017 62.6451H34.1012C33.3998 62.6451 32.74 62.3726 32.2439 61.8787C31.22 60.8594 31.22 59.1992 32.2434 58.178L34.1017 56.3275C35.0956 55.3387 36.826 55.3395 37.8174 56.3284C38.8417 57.3484 38.8417 59.0085 37.8174 60.0286L35.9604 61.8778C35.4634 62.3726 34.8034 62.6451 34.1017 62.6451ZM35.9599 56.4339C35.7297 56.4333 35.5016 56.4782 35.2889 56.5658C35.0762 56.6535 34.883 56.7822 34.7205 56.9446L32.8631 58.7942C32.181 59.4752 32.1806 60.5822 32.8631 61.2619C33.0253 61.4244 33.2182 61.5532 33.4308 61.6409C33.6433 61.7286 33.8712 61.7735 34.1012 61.7729H34.1017C34.5696 61.7729 35.0097 61.5912 35.341 61.2611L37.1981 59.412C37.881 58.7318 37.881 57.6252 37.1981 56.9452C37.036 56.7826 36.843 56.6536 36.6305 56.5659C36.4179 56.4781 36.19 56.4333 35.9599 56.4339ZM29.7659 58.3279C29.0645 58.3279 28.405 58.0558 27.9089 57.5618C26.8851 56.541 26.8851 54.8808 27.9089 53.86L30.3861 51.3932C31.3791 50.4056 33.1113 50.4047 34.1017 51.3932C35.1264 52.4137 35.1264 54.0738 34.1017 55.0942L31.6246 57.5609C31.128 58.0554 30.4677 58.3279 29.7659 58.3279ZM32.2446 51.4996C32.0145 51.4989 31.7864 51.5436 31.5737 51.6312C31.361 51.7187 31.1678 51.8474 31.0053 52.0098L28.5282 54.4766C27.8456 55.1571 27.8456 56.2646 28.5282 56.9451C28.6903 57.1074 28.8832 57.2362 29.0956 57.3239C29.3081 57.4115 29.5359 57.4564 29.7659 57.4558C29.9961 57.4563 30.2242 57.4113 30.437 57.3235C30.6497 57.2357 30.8429 57.1068 31.0053 56.9443L33.4823 54.4776C34.1653 53.7975 34.1653 52.6901 33.4823 52.0099C33.3202 51.8475 33.1274 51.7188 32.9149 51.6312C32.7024 51.5436 32.4746 51.4989 32.2446 51.4996ZM25.4309 54.0098C24.7286 54.0098 24.0692 53.7381 23.5739 53.2439C23.0773 52.7504 22.8037 52.0932 22.8032 51.3943C22.8021 51.0504 22.8695 50.7096 23.0015 50.3919C23.1335 50.0741 23.3275 49.7855 23.5722 49.5429L25.4309 47.6929C26.4235 46.7035 28.1557 46.7043 29.1474 47.6937C29.6439 48.187 29.9173 48.8437 29.9173 49.5429C29.9173 50.2414 29.6439 50.8986 29.1474 51.3929L27.2887 53.2439C26.7922 53.7381 26.1323 54.0098 25.4309 54.0098ZM27.2888 47.7987C27.0587 47.798 26.8307 47.8429 26.6181 47.9306C26.4055 48.0183 26.2125 48.1472 26.0502 48.3097L24.1916 50.1598C24.0284 50.3215 23.8992 50.5139 23.8112 50.7257C23.7233 50.9376 23.6784 51.1647 23.6793 51.3939C23.6789 51.6231 23.7241 51.8502 23.8124 52.0618C23.9006 52.2735 24.0301 52.4657 24.1933 52.6273C24.8536 53.2858 26.0075 53.2858 26.6696 52.6273L28.5283 50.7764C28.6915 50.6148 28.8209 50.4226 28.909 50.2109C28.9971 49.9992 29.0421 49.7722 29.0416 49.543C29.0416 49.0771 28.8594 48.6398 28.5287 48.3109C28.3664 48.1481 28.1732 48.0189 27.9603 47.931C27.7475 47.8431 27.5192 47.7981 27.2888 47.7987ZM21.0956 49.693H21.0952C20.3933 49.693 19.7339 49.4213 19.2383 48.9271C18.2139 47.9064 18.2139 46.2463 19.2383 45.2262L20.4768 43.9928C21.4694 43.0039 23.1989 43.0055 24.1916 43.9936C24.6881 44.488 24.9614 45.1448 24.9619 45.8432C24.9623 46.5417 24.689 47.1985 24.1924 47.6929L22.9539 48.9263C22.4572 49.4208 21.7973 49.693 21.0956 49.693ZM22.3333 44.0989C22.1034 44.0984 21.8757 44.1432 21.6633 44.2309C21.4509 44.3185 21.2581 44.4473 21.0961 44.6096L19.8575 45.843C19.1749 46.5232 19.1749 47.63 19.8575 48.3106C20.0196 48.4729 20.2125 48.6016 20.425 48.6892C20.6374 48.7768 20.8652 48.8216 21.0952 48.8209H21.0956C21.5635 48.8209 22.0035 48.6394 22.3346 48.3097L23.5732 47.0763C23.9042 46.7467 24.0861 46.3089 24.0861 45.8434C24.0861 45.3778 23.9034 44.9401 23.5724 44.6104C23.2408 44.2808 22.8011 44.0989 22.3333 44.0989ZM30.3868 37.9741C29.7136 37.9741 29.0405 37.7186 28.5282 37.2083C27.5039 36.1884 27.5039 34.5291 28.5282 33.5091L32.5535 29.499C36.329 25.7392 44.8287 24.4935 45.1883 24.442C45.4252 24.404 45.6494 24.5731 45.684 24.812C45.7004 24.9266 45.6705 25.0429 45.6008 25.1355C45.5311 25.2281 45.4273 25.2893 45.3123 25.3056C45.2267 25.3175 36.7412 26.5619 33.1726 30.1156L29.1474 34.1258C28.4648 34.8055 28.4648 35.912 29.1474 36.5917C29.8304 37.2723 30.9414 37.2723 31.6245 36.5926C31.8521 36.366 37.2301 31.0756 39.9856 33.8167C40.0263 33.8572 40.0585 33.9052 40.0805 33.9581C40.1025 34.011 40.1139 34.0677 40.1139 34.125C40.1139 34.1823 40.1025 34.239 40.0805 34.2919C40.0585 34.3448 40.0263 34.3928 39.9856 34.4333C39.945 34.4739 39.8967 34.506 39.8436 34.5279C39.7904 34.5499 39.7335 34.5612 39.676 34.5612C39.6185 34.5612 39.5615 34.5499 39.5084 34.5279C39.4553 34.506 39.407 34.4739 39.3664 34.4333C37.5897 32.6668 33.6226 35.837 32.2438 37.2092C31.7319 37.7191 31.0592 37.9741 30.3868 37.9741ZM57.6368 35.1786C57.5793 35.1787 57.5223 35.1675 57.4692 35.1455C57.416 35.1236 57.3678 35.0914 57.3272 35.0509L45.56 23.3321C45.5193 23.2916 45.4871 23.2435 45.4651 23.1906C45.4431 23.1377 45.4317 23.081 45.4317 23.0238C45.4317 22.9665 45.4431 22.9098 45.4651 22.8569C45.4871 22.804 45.5193 22.7559 45.56 22.7154C45.6006 22.6749 45.6489 22.6428 45.702 22.6208C45.7552 22.5989 45.8121 22.5876 45.8696 22.5876C45.9271 22.5876 45.9841 22.5989 46.0372 22.6208C46.0903 22.6428 46.1386 22.6749 46.1792 22.7154L57.9464 34.4342C58.0077 34.4952 58.0494 34.5729 58.0663 34.6575C58.0833 34.7421 58.0746 34.8298 58.0415 34.9095C58.0083 34.9892 57.9522 35.0573 57.8801 35.1052C57.8081 35.1531 57.7234 35.1786 57.6368 35.1786ZM61.9725 33.3277C61.915 33.3278 61.858 33.3165 61.8049 33.2946C61.7517 33.2727 61.7035 33.2405 61.6629 33.1999L47.4178 19.0152C47.3771 18.9747 47.3449 18.9267 47.3229 18.8738C47.3009 18.8209 47.2895 18.7642 47.2895 18.7069C47.2895 18.6496 47.3009 18.5929 47.3229 18.54C47.3449 18.4871 47.3771 18.4391 47.4178 18.3986C47.4584 18.3581 47.5067 18.3259 47.5598 18.304C47.613 18.282 47.6699 18.2708 47.7274 18.2708C47.7849 18.2708 47.8419 18.282 47.895 18.304C47.9481 18.3259 47.9964 18.3581 48.037 18.3986L62.2821 32.5833C62.3434 32.6443 62.3851 32.722 62.4021 32.8066C62.419 32.8912 62.4103 32.9789 62.3772 33.0585C62.344 33.1382 62.2879 33.2064 62.2159 33.2543C62.1438 33.3022 62.0591 33.3277 61.9725 33.3277Z" stroke="#5B21FF" stroke-width="0.5" mask="url(#path-2-outside-1_337_344)"/>
<path d="M57.2241 34.2992C57.1719 34.3513 57.1304 34.4132 57.1021 34.4814L57.2176 34.5293L57.1021 34.4814C57.0739 34.5496 57.0593 34.6227 57.0593 34.6965C57.0593 34.7703 57.0739 34.8433 57.1021 34.9115L57.2176 34.8636C57.2396 34.9166 57.2718 34.9647 57.3124 35.0053L57.2239 35.0935C57.224 35.0936 57.224 35.0937 57.2241 35.0937C57.2762 35.146 57.3381 35.1874 57.4063 35.2156C57.4745 35.2438 57.5476 35.2583 57.6214 35.2582M57.2241 34.2992L57.3124 34.3877L57.2241 34.2992L57.2241 34.2992ZM57.2241 34.2992L59.0782 32.4462L59.1666 32.5346L59.0782 32.4462C59.1304 32.394 59.1924 32.3527 59.2606 32.3244C59.3288 32.2962 59.4018 32.2817 59.4756 32.2817C59.5494 32.2817 59.6225 32.2962 59.6907 32.3245C59.7589 32.3527 59.8208 32.3941 59.873 32.4462C59.9252 32.4984 59.9666 32.5603 59.9948 32.6285C60.0231 32.6967 60.0376 32.7697 60.0376 32.8435C60.0376 32.9173 60.0231 32.9903 59.9948 33.0585C59.9665 33.1267 59.9251 33.1886 59.8729 33.2407L58.0189 35.0936C57.9668 35.1458 57.9048 35.1873 57.8365 35.2156C57.7683 35.2438 57.6953 35.2583 57.6214 35.2582M57.6214 35.2582C57.6214 35.2582 57.6213 35.2582 57.6213 35.2582L57.6214 35.1332L57.6216 35.2582C57.6216 35.2582 57.6215 35.2582 57.6214 35.2582ZM58.2463 8.74552L58.3347 8.83394L48.1291 19.0328L58.2463 8.74552ZM58.2463 8.74552L58.3347 8.83394C58.3869 8.78178 58.4283 8.71986 58.4565 8.6517C58.4848 8.58355 58.4993 8.51049 58.4993 8.43672C58.4993 8.36294 58.4848 8.28989 58.4565 8.22173C58.4283 8.15357 58.3869 8.09165 58.3347 8.0395C58.2825 7.98734 58.2205 7.94597 58.1524 7.91775C58.0842 7.88952 58.0111 7.875 57.9373 7.875C57.8635 7.875 57.7905 7.88953 57.7223 7.91775C57.6541 7.94597 57.5921 7.98734 57.54 8.03949L47.3342 18.2385M58.2463 8.74552L47.7316 19.1975M61.9486 33.4044C62.0224 33.4045 62.0955 33.39 62.1637 33.3617C62.232 33.3335 62.294 33.292 62.3461 33.2397L63.9603 31.6284L63.9603 31.6283C64.0125 31.5762 64.0539 31.5142 64.0822 31.4461C64.1104 31.3779 64.125 31.3049 64.125 31.2311C64.125 31.1573 64.1104 31.0843 64.0822 31.0161C64.0539 30.9479 64.0125 30.886 63.9604 30.8339C63.9082 30.7817 63.8462 30.7403 63.778 30.7121C63.7098 30.6839 63.6368 30.6694 63.563 30.6694C63.4892 30.6694 63.4161 30.6839 63.3479 30.7121C63.2798 30.7403 63.2178 30.7817 63.1656 30.8339L61.5513 32.4454C61.4991 32.4975 61.4576 32.5594 61.4293 32.6276L61.5448 32.6755L61.4293 32.6276C61.4011 32.6958 61.3865 32.7688 61.3865 32.8426C61.3865 32.9164 61.4011 32.9895 61.4293 33.0577L61.5448 33.0098C61.5668 33.0628 61.599 33.1109 61.6396 33.1514L61.5511 33.2397C61.5512 33.2398 61.5512 33.2399 61.5513 33.2399C61.6034 33.2921 61.6653 33.3335 61.7335 33.3618C61.8017 33.39 61.8748 33.4045 61.9486 33.4044ZM61.9486 33.4044C61.9486 33.4044 61.9485 33.4044 61.9485 33.4044L61.9486 33.2794L61.9488 33.4044C61.9488 33.4044 61.9487 33.4044 61.9486 33.4044ZM24.641 20.2683C24.6933 20.2162 24.7347 20.1543 24.763 20.0861L24.6475 20.0382L10.4241 34.4751L24.641 20.2683ZM24.641 20.2683L24.5527 20.1799L24.6411 20.2683L24.641 20.2683ZM45.8774 23.5211C45.7663 23.5211 45.6576 23.4882 45.5651 23.4265C45.4727 23.3648 45.4006 23.2771 45.358 23.1744C45.3155 23.0717 45.3044 22.9587 45.3261 22.8497C45.3478 22.7407 45.4014 22.6406 45.48 22.5621C45.48 22.5621 45.4801 22.5621 45.4801 22.5621L47.3342 20.7091C47.3864 20.6569 47.4483 20.6155 47.5165 20.5873C47.5847 20.5591 47.6578 20.5446 47.7315 20.5446C47.8053 20.5446 47.8784 20.5591 47.9466 20.5873C48.0148 20.6155 48.0767 20.6569 48.1289 20.7091C48.1811 20.7612 48.2225 20.8231 48.2508 20.8913C48.279 20.9594 48.2935 21.0325 48.2935 21.1063C48.2935 21.1801 48.279 21.2531 48.2508 21.3213C48.2225 21.3894 48.1811 21.4513 48.1289 21.5035L46.2749 23.3564L45.8774 23.5211ZM45.8774 23.5211L45.8774 23.3961L45.8774 23.5211ZM47.7316 19.1975C47.6204 19.1975 47.5117 19.1646 47.4193 19.1029C47.3268 19.0412 47.2547 18.9535 47.2122 18.8508C47.1696 18.7481 47.1585 18.6351 47.1802 18.5261C47.202 18.4171 47.2556 18.317 47.3342 18.2385M47.7316 19.1975L47.7315 19.0725L47.7316 19.1975ZM47.3342 18.2385L47.4225 18.3269L47.3342 18.2385L47.3342 18.2385ZM13.9556 35.5328C13.877 35.6113 13.8234 35.7114 13.8016 35.8205C13.7799 35.9295 13.791 36.0425 13.8336 36.1452C13.8762 36.2479 13.9483 36.3356 14.0408 36.3973C14.1333 36.459 14.242 36.4919 14.3531 36.4918L14.3531 36.3668L14.353 36.4918C14.4268 36.4919 14.4999 36.4773 14.5681 36.4491C14.6364 36.4208 14.6983 36.3794 14.7505 36.3272L26.4951 24.5918C26.4951 24.5918 26.4951 24.5918 26.4951 24.5918C26.7148 24.3723 26.7146 24.0168 26.4951 23.7974C26.2756 23.5779 25.9199 23.5779 25.7004 23.7973C25.7004 23.7973 25.7004 23.7973 25.7003 23.7974L13.9556 35.5328ZM13.9556 35.5328L14.0439 35.6212L13.9556 35.5328L13.9556 35.5328ZM10.0266 34.6397C9.95282 34.6398 9.87971 34.6253 9.81151 34.5971C9.74336 34.5689 9.68144 34.5275 9.62932 34.4753C9.62925 34.4752 9.62919 34.4751 9.62912 34.4751L9.71762 34.3868L10.0266 34.6397ZM10.0266 34.6397C10.1004 34.6398 10.1735 34.6253 10.2417 34.5971C10.3099 34.5688 10.3719 34.5274 10.424 34.4752L10.0266 34.6397ZM10.0266 34.6397C10.0266 34.6397 10.0265 34.6397 10.0265 34.6397L10.0266 34.5147L10.0266 34.6397ZM23.8463 19.4739L9.62932 33.6807L23.8463 19.4739ZM24.0286 19.352C23.9604 19.3803 23.8985 19.4216 23.8463 19.4738L24.6411 19.4739C24.6411 19.4738 24.641 19.4738 24.641 19.4738C24.5889 19.4216 24.5269 19.3802 24.4588 19.352C24.3906 19.3238 24.3175 19.3092 24.2437 19.3092C24.1699 19.3092 24.0968 19.3238 24.0286 19.352Z" fill="#5B21FF" stroke="#5B21FF" stroke-width="0.25"/>
<path d="M12.073 34.4748L12.073 34.4748C11.854 34.2553 11.854 33.9 12.073 33.6806C12.292 33.4611 12.6471 33.4609 12.8661 33.6806L14.7147 35.5328C14.7147 35.5328 14.7147 35.5328 14.7147 35.5329C14.7931 35.6114 14.8465 35.7115 14.8681 35.8204C14.8898 35.9294 14.8787 36.0423 14.8363 36.1449C14.7939 36.2476 14.7221 36.3354 14.6298 36.3971C14.5376 36.4589 14.4292 36.4918 14.3182 36.4918C14.3182 36.4918 14.3181 36.4918 14.3181 36.4918L14.3181 36.3668C14.2609 36.3669 14.2042 36.3556 14.1513 36.3336C14.0984 36.3117 14.0504 36.2794 14.01 36.2388L12.073 34.4748ZM12.073 34.4748L13.9214 36.327L12.073 34.4748ZM8.07128 32.9339L8.07074 32.9333C7.9667 32.8277 7.90862 32.6852 7.90907 32.5369C7.90952 32.3887 7.96847 32.2465 8.07315 32.1415C8.17784 32.0366 8.31977 31.9773 8.46797 31.9768C8.61617 31.9764 8.75848 32.0347 8.86385 32.139L8.86441 32.1395L10.4014 33.6804C10.4014 33.6804 10.4014 33.6805 10.4015 33.6805C10.4535 33.7326 10.4948 33.7945 10.523 33.8627C10.5512 33.9308 10.5657 34.0038 10.5657 34.0776C10.5657 34.1514 10.5512 34.2244 10.523 34.2925C10.4949 34.3606 10.4536 34.4224 10.4017 34.4745C10.4016 34.4746 10.4015 34.4747 10.4014 34.4748L8.07128 32.9339ZM8.07128 32.9339L9.6082 34.4747L8.07128 32.9339ZM26.0271 24.7549C25.9534 24.755 25.8804 24.7405 25.8124 24.7122C25.7443 24.6839 25.6824 24.6424 25.6304 24.5901L23.782 22.7371C23.782 22.7371 23.7819 22.7371 23.7819 22.7371C23.7299 22.6849 23.6886 22.623 23.6604 22.5549C23.6322 22.4868 23.6177 22.4137 23.6177 22.34C23.6177 22.2662 23.6322 22.1932 23.6604 22.125C23.6886 22.0569 23.7299 21.9949 23.782 21.9428M26.0271 24.7549L23.8704 22.0311M26.0271 24.7549C26.1008 24.755 26.1738 24.7405 26.2418 24.7122L26.1939 24.5968M26.0271 24.7549L26.1939 24.5968M23.782 21.9428L23.8704 22.0311M23.782 21.9428C23.7819 21.9428 23.7819 21.9429 23.7819 21.9429L23.8704 22.0311M23.782 21.9428C23.834 21.8906 23.8958 21.8492 23.9638 21.8209C24.0318 21.7926 24.1048 21.7781 24.1785 21.7781C24.2522 21.7781 24.3252 21.7926 24.3932 21.8209C24.4612 21.8492 24.523 21.8906 24.5751 21.9428M23.8704 22.0311C23.9109 21.9905 23.9589 21.9583 24.0117 21.9364C24.0646 21.9144 24.1213 21.9031 24.1785 21.9031C24.2357 21.9031 24.2924 21.9144 24.3452 21.9364C24.3981 21.9583 24.4461 21.9905 24.4866 22.0311L24.5751 21.9428M24.5751 21.9428C24.5751 21.9429 24.5751 21.9429 24.5751 21.9429M24.5751 21.9428L24.5751 21.9429M24.5751 21.9429L26.4236 23.7959C26.4236 23.796 26.4236 23.796 26.4237 23.796C26.4757 23.8482 26.517 23.9101 26.5452 23.9782C26.5734 24.0463 26.5879 24.1194 26.5879 24.1931C26.5879 24.2669 26.5734 24.3399 26.5452 24.4081C26.517 24.4762 26.4757 24.5381 26.4236 24.5903M24.5751 21.9429L26.1939 24.5968M26.4236 24.5903L26.3352 24.502L26.4238 24.5901C26.4237 24.5902 26.4237 24.5902 26.4236 24.5903ZM26.4236 24.5903C26.3716 24.6425 26.3098 24.684 26.2418 24.7122L26.1939 24.5968M10.0051 34.6395C9.93131 34.6396 9.85828 34.6251 9.79017 34.5968C9.72212 34.5685 9.66033 34.5271 9.60834 34.4748L10.0051 34.6395ZM10.0051 34.6395L10.0049 34.5145L10.0051 34.6395ZM24.1786 20.4309C24.1049 20.431 24.0319 20.4164 23.9638 20.3882C23.8957 20.3599 23.8339 20.3184 23.7818 20.2662L12.3785 8.83395C12.1596 8.61447 12.1596 8.25909 12.3785 8.03968C12.5976 7.82022 12.9526 7.81998 13.1716 8.03971L24.1786 20.4309ZM24.1786 20.4309L24.1785 20.3059M24.1786 20.4309L13.1717 8.03974L24.575 19.4718C24.575 19.4719 24.575 19.4719 24.5751 19.4719C24.6271 19.524 24.6684 19.586 24.6966 19.6541C24.7248 19.7222 24.7393 19.7953 24.7393 19.869C24.7393 19.9428 24.7248 20.0158 24.6966 20.0839C24.6684 20.1521 24.6271 20.214 24.575 20.2662L24.4866 20.1779M24.4866 20.1779L24.5752 20.2659C24.5232 20.3183 24.4614 20.3598 24.3933 20.3882C24.3252 20.4165 24.2521 20.431 24.1783 20.4309L24.1785 20.3059M24.4866 20.1779C24.4462 20.2185 24.3982 20.2508 24.3453 20.2727C24.2924 20.2947 24.2357 20.306 24.1785 20.3059M24.4866 20.1779C24.527 20.1373 24.5592 20.0892 24.5811 20.0362C24.603 19.9832 24.6143 19.9264 24.6143 19.869C24.6143 19.8116 24.603 19.7548 24.5811 19.7018C24.5592 19.6488 24.527 19.6007 24.4866 19.5602L24.1785 20.3059M9.30611 30.806C9.1178 30.8065 8.93127 30.7696 8.75729 30.6974C8.58319 30.6251 8.42513 30.519 8.29225 30.3851C7.73535 29.8241 7.73612 28.9143 8.29334 28.3556C8.83413 27.8118 9.77762 27.8114 10.3192 28.356C10.4525 28.4889 10.5581 28.647 10.6299 28.8211C10.7018 28.9952 10.7384 29.1818 10.7379 29.3701M9.30611 30.806C9.49432 30.8066 9.68077 30.7697 9.85463 30.6975C10.0285 30.6252 10.1863 30.5191 10.3189 30.3853C10.4523 30.2523 10.558 30.094 10.6299 29.9197C10.7018 29.7455 10.7385 29.5587 10.7379 29.3701M9.30611 30.806C9.30598 30.806 9.30585 30.806 9.30572 30.806L9.30614 30.681L9.30651 30.806C9.30638 30.806 9.30625 30.806 9.30611 30.806ZM10.7379 29.3701C10.7379 29.3699 10.7379 29.3698 10.7379 29.3696L10.6129 29.3701L10.7379 29.3705C10.7379 29.3704 10.7379 29.3702 10.7379 29.3701ZM9.30614 29.0586L9.30666 29.0586C9.34727 29.0584 9.38752 29.0664 9.42506 29.082L9.47301 28.9665L9.42506 29.082C9.4626 29.0976 9.49668 29.1205 9.52532 29.1495L9.52571 29.1499C9.58424 29.2086 9.61642 29.2863 9.61642 29.3704L9.61642 29.3709C9.61656 29.4118 9.60859 29.4524 9.59298 29.4902C9.57737 29.528 9.55443 29.5624 9.52551 29.5912L9.52536 29.5913C9.41023 29.7065 9.20052 29.7056 9.08659 29.5919C9.02838 29.5331 8.99567 29.4536 8.99573 29.3706C8.99579 29.2876 9.02868 29.208 9.0871 29.1493L9.08725 29.1492C9.1452 29.0908 9.22249 29.0586 9.30614 29.0586Z" fill="#5B21FF" stroke="#5B21FF" stroke-width="0.25"/>
</svg>
