<svg width="72" height="72" viewBox="0 0 72 72" fill="none" xmlns="http://www.w3.org/2000/svg">
<rect width="72" height="72" fill="white"/>
<path d="M60.3856 33.8711C60.7247 33.8711 60.9996 33.5958 60.9996 33.256V21.7937C60.9996 20.4738 60.0139 19.1325 58.7556 18.7401L37.9946 12.2616C36.8763 11.9128 35.1234 11.9128 34.0051 12.2616L13.2438 18.7401C11.9857 19.1325 11 20.4738 11 21.7937V51.2107C11 52.5306 11.9854 53.8719 13.2438 54.2649L34.005 60.7427C34.5552 60.9145 35.2582 61.0003 35.9638 61C36.6938 61 37.4265 60.9084 37.9947 60.7261L41.6149 59.5623C41.9376 59.4586 41.9965 59.2491 41.9965 58.8481L41.9291 46.1862C41.927 45.8477 41.9127 45.5085 41.035 45.6451L39.669 45.8346L42.8821 39.1476L46.1398 44.6793L45.0138 44.938C45.0138 44.938 44.5233 44.9817 44.5233 45.5393C44.5233 48.6523 44.4977 57.991 44.4977 57.991C44.4977 58.6909 45.0135 58.6276 45.3005 58.5775L52.9149 56.1172C53.2052 56.0234 53.3421 55.8924 53.3421 55.3304L53.2836 44.0252C53.2836 43.2377 52.9152 43.1245 52.5808 43.1735L51.1323 43.385L54.028 37.0507L57.1677 42.2993L55.838 42.5603C55.5052 42.6258 55.364 42.8378 55.364 43.3167V54.7417C55.364 55.2262 55.6676 55.6004 56.2403 55.318L58.8224 54.353C60.0437 53.8965 61 52.516 61 51.2107V39.7577C61 39.4179 60.7251 39.1425 60.3858 39.1425C60.0466 39.1425 59.7718 39.4179 59.7718 39.7577V51.2107C59.7718 51.9962 59.1275 52.9261 58.3932 53.2008L56.5922 53.8739V43.666L57.6032 43.4677C57.975 43.3948 58.2693 43.1708 58.4104 42.8534C58.5514 42.5358 58.5204 42.1671 58.3255 41.8416L54.8269 35.9938C54.615 35.6399 54.2914 35.4488 53.9402 35.468C53.5882 35.4872 53.2883 35.7135 53.1166 36.0882L49.8249 43.29C49.6552 43.6617 49.6788 44.0364 49.8901 44.3187C50.0672 44.5553 50.3441 44.6832 50.6672 44.6832C50.7287 44.6832 50.7925 44.6786 50.8571 44.669L52.058 44.493L52.1131 55.0839L45.728 57.1474L45.7509 46.0306C45.7509 46.0306 46.2677 45.9387 46.5364 45.8504C46.9027 45.7298 47.2081 45.5263 47.3489 45.1988C47.4891 44.8714 47.4573 44.4929 47.2617 44.1604L43.7197 38.1478C43.5051 37.7838 43.1798 37.5868 42.8162 37.5995C42.4566 37.6147 42.1457 37.8418 41.9627 38.2223L38.3761 45.6898C38.1935 46.0701 38.2102 46.4551 38.4222 46.7465C38.6014 46.993 38.8879 47.1265 39.2247 47.1265C39.286 47.1265 39.3488 47.1222 39.4128 47.1133L40.7056 46.9332L40.7674 58.5431L37.6205 59.5544C36.7406 59.8368 35.253 59.8433 34.3711 59.5685L13.6097 53.0906C12.8743 52.8607 12.229 51.9827 12.229 51.2107V21.7937C12.229 21.022 12.8743 20.1439 13.6097 19.9144L34.3711 13.436C35.2548 13.1607 36.7472 13.1607 37.6305 13.436L58.3921 19.9144C59.1273 20.1439 59.7727 21.022 59.7727 21.7937V33.2561C59.7714 33.5959 60.0463 33.8711 60.3856 33.8711Z" fill="#5B21FF"/>
<path d="M55.2179 23.0276L37.2624 28.6341C36.5897 28.8438 35.4103 28.8438 34.7381 28.6341L16.7818 23.0276C16.4641 22.9282 16.1263 23.1057 16.0275 23.4245C15.9284 23.743 16.1058 24.0816 16.4237 24.1806L34.3795 29.7871C34.8339 29.9289 35.4172 30 36.0002 30C36.5833 30 37.1664 29.929 37.6207 29.7871L55.5764 24.1806C55.8941 24.0816 56.0718 23.743 55.9724 23.4245C55.8736 23.1057 55.5352 22.9282 55.2179 23.0276Z" fill="#5B21FF"/>
</svg>
