<svg width="72" height="72" viewBox="0 0 72 72" fill="none" xmlns="http://www.w3.org/2000/svg">
<rect width="72" height="72" fill="white"/>
<path d="M62 16L35.6923 42L24 30.4444" stroke="#5B21FF" stroke-width="2" stroke-linecap="round" stroke-linejoin="round"/>
<path d="M61.8267 33.1111C61.9428 34.0697 62.0007 35.0344 62 36C62 41.1423 60.4751 46.1691 57.6182 50.4448C54.7613 54.7205 50.7006 58.053 45.9498 60.0209C41.1989 61.9887 35.9712 62.5036 30.9277 61.5004C25.8842 60.4972 21.2514 58.0209 17.6152 54.3848C13.9791 50.7486 11.5028 46.1158 10.4996 41.0723C9.49638 36.0288 10.0113 30.8011 11.9791 26.0502C13.947 21.2993 17.2795 17.2387 21.5552 14.3818C25.8309 11.5249 30.8577 10 36 10C40.0259 10.0376 43.9856 11.0275 47.5556 12.8889" stroke="#5B21FF" stroke-width="2" stroke-linecap="round" stroke-linejoin="round"/>
</svg>
