<svg width="51" height="37" viewBox="0 0 51 37" fill="none" xmlns="http://www.w3.org/2000/svg">
<path d="M46.5106 34.5225C47.6329 34.5225 48.5424 33.6152 48.5424 32.4957V4.05378C48.5424 2.93454 47.6327 2.02689 46.5106 2.02689H18.5134C17.3913 2.02689 16.4816 2.93454 16.4816 4.05378V32.4957C16.4816 33.6152 17.3911 34.5225 18.5134 34.5225H46.5106ZM46.5106 36.5494H18.5134C16.269 36.5494 14.4498 34.7346 14.4498 32.4957V4.05378C14.4498 1.81515 16.2691 0 18.5134 0H46.5106C48.7549 0 50.5742 1.81515 50.5742 4.05378V32.4957C50.5742 34.7346 48.755 36.5494 46.5106 36.5494Z" fill="#000064"/>
<path d="M34.6371 13.3288C33.5972 12.7985 32.0265 12.7985 30.9865 13.3288L29.8383 13.9142V1.86832C29.8383 1.30596 29.3819 0.850098 28.8188 0.850098C28.2557 0.850098 27.7993 1.30596 27.7993 1.86832V14.0504C27.7993 15.6513 29.2177 16.5181 30.6449 15.7894L31.9136 15.1426C32.3713 14.9093 33.2524 14.9093 33.7101 15.1426L34.9794 15.7897C36.4066 16.518 37.8244 15.6514 37.8244 14.0504V1.86837C37.8244 1.30601 37.368 0.850148 36.8049 0.850148C36.2419 0.850148 35.7854 1.30601 35.7854 1.86837V13.9143L34.6371 13.3288ZM9.46389 10.3946H1.01949C0.456429 10.3946 0 10.8504 0 11.4128C0 11.9752 0.456429 12.431 1.01949 12.431H9.46389C10.027 12.431 10.4834 11.9752 10.4834 11.4128C10.4834 10.8504 10.027 10.3946 9.46389 10.3946ZM9.46389 22.6133H1.01949C0.456429 22.6133 0 23.0691 0 23.6315C0 24.1939 0.456429 24.6497 1.01949 24.6497H9.46389C10.027 24.6497 10.4834 24.1939 10.4834 23.6315C10.4834 23.0691 10.027 22.6133 9.46389 22.6133ZM11.4276 16.5039H2.98319C2.42013 16.5039 1.9637 16.9598 1.9637 17.5222C1.9637 18.0845 2.42013 18.5404 2.98319 18.5404H11.4276C11.9907 18.5404 12.4471 18.0845 12.4471 17.5222C12.4471 16.9598 11.9907 16.5039 11.4276 16.5039Z" fill="#000064"/>
</svg>
