<svg width="50" height="50" viewBox="0 0 50 50" fill="none" xmlns="http://www.w3.org/2000/svg">
<path d="M25 0C11.193 0 0 11.193 0 25C0 38.807 11.193 50 25 50C38.807 50 50 38.807 50 25C50 11.193 38.807 0 25 0ZM21.7336 5.01172L21.8711 4.85156C22.2195 4.44922 22.6141 3.99375 22.6734 3.21094C22.725 2.56016 22.4953 2.10078 22.2469 1.72891C23.1508 1.62266 24.068 1.5625 25 1.5625C26.1445 1.5625 27.268 1.64844 28.3687 1.80703C28.5734 2.0625 28.8422 2.32891 29.2781 2.50781C29.7406 2.70703 30.2867 2.86484 30.9742 2.70234C31.1773 2.65391 31.3352 2.56797 31.4711 2.47422C31.9539 2.6125 32.4312 2.7625 32.9016 2.93047C33.0664 3.40625 33.3828 3.97344 34.1547 4.07109C34.5891 4.13281 34.9523 4.06484 35.2703 3.92812C41.8914 7.16172 46.7562 13.4227 48.075 20.9078C47.9469 21.1781 47.9281 21.4438 47.9242 21.6117C47.9227 21.6586 47.9266 21.7062 47.9305 21.7188C47.9023 21.7625 47.8664 21.7852 47.6922 21.8687C47.493 21.9648 47.2211 22.0961 46.9703 22.3602C46.6852 22.6547 46.5539 22.9461 46.4484 23.1805C46.3664 23.3633 46.3195 23.4625 46.2344 23.5477C46.1797 23.6008 46.0734 23.6328 45.9062 23.6812C45.5797 23.775 45.0867 23.9164 44.7555 24.4531C44.4406 24.9602 44.4672 25.4289 44.4859 25.7711C44.4883 25.8102 44.4914 25.85 44.493 25.8906C44.4328 25.9203 44.3594 25.9508 44.2828 25.9758C44.3281 25.7289 44.3344 25.3875 44.1133 25.0367C43.8148 24.5813 43.4203 24.5125 43.2125 24.5125C42.8156 24.5125 42.5164 24.7406 42.3242 24.9273C42.3281 24.5492 42.3195 24.2008 42.2578 23.9398C42.2 23.6773 42.2367 23.5312 42.3602 23.1078L42.4031 22.9594C42.4586 22.7578 42.5687 22.6141 42.7203 22.4141C42.9289 22.1406 43.1883 21.8008 43.3117 21.2758C43.45 20.7039 43.4094 20.282 43.3695 19.8734C43.3547 19.7289 43.3398 19.5766 43.3328 19.4008L43.318 18.9875C43.3023 18.5016 43.2898 18.082 43.1703 17.4695L43.1164 17.1969C42.9961 16.582 42.8914 16.0516 42.4523 15.382C42.0766 14.8203 41.7797 14.4258 41.1211 14.0758C40.9656 13.9906 40.8039 13.9219 40.6391 13.8703C40.3727 13.7812 40.1289 13.7508 39.893 13.7203L39.6492 13.6875C39.2328 13.6266 38.8578 13.6992 38.582 13.7555C38.3586 13.8008 38.2164 13.8375 38.1047 13.7758C37.993 13.7148 37.9398 13.6508 37.8016 13.4758C37.7281 13.3828 37.6508 13.2852 37.5484 13.1719C37.4453 13.0609 37.375 12.9578 37.307 12.8602C37.1727 12.6688 37.0062 12.4297 36.7133 12.193C36.4008 11.9391 36.1625 11.7609 35.7141 11.6039C34.9164 11.3398 34.1828 11.5367 33.55 11.7609C33.0312 11.9406 32.7148 12.2016 32.4344 12.4312C32.3117 12.5328 32.182 12.6406 32.0563 12.725C31.9328 12.7969 31.8219 12.8469 31.7172 12.8969C31.4703 13.0117 31.1898 13.143 30.8797 13.4188C30.6641 13.6078 29.932 14.0852 29.7625 14.1281C29.6867 14.125 29.6117 14.0945 29.475 14.0359C29.2984 13.9594 29.0578 13.857 28.7797 13.8344L28.6102 13.8242C28.5578 13.8242 28.5039 13.8273 28.4641 13.8313C28.1094 13.8578 27.8602 13.9734 27.6766 14.057C27.6047 14.0898 27.5313 14.1273 27.4391 14.15C27.1688 14.2172 26.8641 14.2125 26.5578 14.1961C26.068 14.1711 25.5875 14.1852 25.1469 14.3102C24.7852 14.4125 24.5234 14.5891 24.3328 14.7188C24.1273 14.8578 24.0781 14.882 24 14.8828C23.9211 14.8828 23.8648 14.85 23.6469 14.6781C23.4312 14.5078 23.1352 14.2742 22.6984 14.1531C22.3836 14.0687 22.1594 14.0414 21.9219 14.0125L21.7055 13.9859C21.2953 13.9266 21.0023 13.9023 20.6703 13.875C20.5164 13.8625 20.3539 13.85 20.1641 13.8313L19.9438 13.8273L19.9078 13.8414C19.882 13.843 19.8516 13.8445 19.818 13.8461L19.8094 13.8406C19.5594 13.6664 19.3008 13.4875 18.9211 13.3031C18.6414 13.1656 18.4141 13.0609 18.1641 12.9711C18.1531 12.6922 18.1219 12.3203 18.0383 12.0703C18.0203 12.0133 18.0016 11.9633 17.9773 11.9008C17.9859 11.8648 18.0016 11.8047 18.032 11.7133C18.1336 11.4195 18.2914 11.1992 18.3602 11.1109C18.4023 11.082 18.4414 11.057 18.4789 11.032C18.625 10.9383 18.8055 10.8211 18.9914 10.6195C19.5125 10.068 19.7492 9.53594 19.8086 8.77812C19.8555 8.10156 19.4781 7.64688 19.2281 7.34531C19.1562 7.26016 19.0453 7.12656 19.0297 7.10938C19.0633 6.97734 19.1219 6.92031 19.4484 6.70391C19.6266 6.58594 19.8125 6.46016 19.9898 6.30469C20.1914 6.13047 20.3852 6.02031 20.6086 5.89297C20.9586 5.69375 21.3547 5.46797 21.7336 5.01172ZM3.44219 34.207C2.55313 32.1281 1.95781 29.8937 1.70391 27.5578C1.89531 27.1984 2.12734 26.85 2.44297 26.4656C2.66875 26.1961 2.90859 26.0328 3.18516 25.8445C3.52188 25.6148 3.90391 25.3539 4.26562 24.9016C4.7 24.3727 4.84219 23.8086 4.95703 23.3547C5.08047 22.868 5.15078 22.6258 5.40859 22.4469C5.76797 22.2016 6.05234 22.175 6.56797 22.1266C6.75312 22.1102 6.94922 22.0906 7.16563 22.0602L7.45312 22.018C8.46719 21.8687 9.11484 21.8016 9.95781 22.0391C10.5297 22.1992 10.882 22.4664 11.3281 22.8039C11.6219 23.0266 11.9547 23.2781 12.3797 23.5211C12.7094 23.7094 12.9883 23.9172 13.2578 24.118C13.8602 24.5656 14.4828 25.0281 15.518 25.1797C16.1117 25.2617 16.6117 25.0781 16.9906 24.9352C17.1805 24.8625 17.3602 24.7945 17.4719 24.7945C17.4977 24.7945 17.5305 24.7969 17.5836 24.8258C18.0953 25.1102 18.2094 25.3461 18.2305 25.5078C18.1211 25.5383 17.9625 25.5656 17.8461 25.5867C17.2969 25.6828 16.275 25.8617 16.157 26.9141C16.0977 27.4219 16.2719 27.7398 16.4305 27.9164C16.8398 28.3781 17.6031 28.3289 18.4633 28.1352C18.8336 28.0516 19.2172 27.9641 19.5242 27.9641C19.6641 27.9641 19.7469 27.9828 19.7844 27.9961C20.0109 28.0781 20.2555 28.1383 20.4937 28.1945C20.5984 28.2188 20.7383 28.2516 20.8586 28.2844C20.7703 28.3008 20.6797 28.3172 20.6031 28.3305C20.243 28.3922 19.8359 28.4625 19.4633 28.6398C19.1695 28.7766 18.9188 28.9063 18.6836 29.0289C18.2039 29.2773 17.8242 29.4742 17.2461 29.6313C17.0695 29.6781 16.8016 29.6383 16.5195 29.5906C16.2961 29.5523 16.0656 29.5133 15.8219 29.5133C15.2453 29.5133 14.7914 29.7422 14.4758 30.1891C13.7539 31.1984 14.182 32.2539 14.3883 32.7625C14.6687 33.4523 15.3297 34.275 16.8781 34.275C17.607 34.275 18.45 34.0977 19.5305 33.718C20.2758 33.4539 20.7125 32.9766 21.0625 32.5922C21.3453 32.2812 21.5688 32.0359 21.9297 31.875L22.3273 31.6938C23.1461 31.3164 23.7453 31.0477 24.3891 31.3508C24.5617 31.432 24.6367 31.5867 24.7938 31.9742C24.9758 32.4258 25.2258 33.0445 25.9219 33.4148C26.5555 33.7508 27.3469 33.6289 27.925 33.4633C28.2719 33.3641 28.55 33.2789 28.7516 33.3969C28.9633 33.5227 29.0508 33.693 29.2117 34.0352C29.3555 34.3406 29.5336 34.7203 29.8781 35.0812C29.9812 35.1898 30.0781 35.2953 30.1711 35.3969C30.7422 36.0227 31.2828 36.6133 32.3523 36.8664C32.5062 36.9023 32.6633 36.9203 32.8195 36.9203C33.3664 36.9203 33.8062 36.7023 34.1594 36.5266C34.4625 36.3766 34.6961 36.2641 34.8867 36.3234C35.6844 36.5844 35.85 36.7633 35.925 37.082C35.9906 37.3375 35.7203 37.5523 34.7188 38.0359C34.5594 38.1133 34.4008 38.1898 34.25 38.268C33.7117 38.5453 33.3086 38.5797 32.6984 38.632C32.4547 38.6523 32.1945 38.675 31.9141 38.7133C31.3477 38.7844 30.8359 38.907 30.3406 39.0258C29.7695 39.1633 29.2297 39.2922 28.7602 39.2922C28.2906 39.2922 27.9156 39.1633 27.5531 38.8789C27.2563 38.6414 27.1187 38.3891 26.9281 38.0406C26.7898 37.7875 26.6336 37.5008 26.3867 37.1742C26.1688 36.8992 25.9812 36.5039 25.8 36.1203C25.4 35.2742 24.9023 34.2211 23.7703 34.2211C23.5773 34.2211 23.3766 34.2555 23.1734 34.3242C22.2938 34.6203 22.0008 35.325 21.7867 35.8391C21.6945 36.0602 21.6078 36.2687 21.4906 36.4406C21.1977 36.8586 21.05 37.3023 20.9187 37.6938C20.6992 38.3508 20.6305 38.4281 20.4555 38.4539C20.1734 38.4945 19.9961 38.375 19.5766 38.0719C19.4516 37.9812 19.3219 37.8867 19.1844 37.7961C18.9141 37.6164 18.7547 37.4172 18.5523 37.1641C18.3266 36.882 18.0703 36.5617 17.6508 36.2602C17.1844 35.9164 16.7633 35.7516 16.3922 35.6055C16.0922 35.4883 15.8328 35.3867 15.5469 35.1969C15.4383 35.1242 15.3422 35.0023 15.2305 34.8602C14.9766 34.5383 14.593 34.0516 13.8352 34.0242L13.7562 34.0227C13.1852 34.0227 12.3875 34.2258 11.8297 35.1922C11.6273 35.5422 11.4859 36.0148 11.3344 36.5148C11.0891 37.3312 10.7523 38.4477 10.225 38.4477H10.2242C9.67891 38.4109 8.07344 37.0055 7.30156 36.3297C6.74844 35.8453 6.27031 35.4273 5.92578 35.1992L5.66641 35.0203C5.07656 34.6102 4.46875 34.1875 3.66562 34.1875C3.59219 34.1875 3.51719 34.1992 3.44219 34.207ZM25 48.4375C16.0281 48.4375 8.23594 43.3937 4.29766 35.9875C4.44766 36.0789 4.60469 36.1844 4.77266 36.3008L5.05547 36.4953C5.31797 36.6695 5.78047 37.0734 6.27031 37.5023C7.89531 38.9242 9.12187 39.9359 10.1211 40.0039C11.8867 40.1203 12.4539 38.2062 12.8289 36.9625C12.9469 36.5695 13.0703 36.1633 13.1812 35.9695C13.3883 35.6117 13.5859 35.582 13.7844 35.5812C13.8281 35.6047 13.932 35.7375 14.0008 35.825C14.1617 36.0297 14.3633 36.2844 14.6781 36.4945C15.1055 36.7781 15.4844 36.9266 15.8203 37.0578C16.1422 37.1836 16.4203 37.293 16.7281 37.5211C16.982 37.7023 17.143 37.9047 17.3305 38.1383C17.5719 38.4391 17.8438 38.7789 18.3188 39.0961C18.4391 39.1758 18.55 39.2562 18.6578 39.3336C19.1641 39.7023 19.7477 40.1281 20.6734 39.9992C21.8492 39.8305 22.1797 38.8422 22.3984 38.1883C22.5055 37.8695 22.6062 37.5687 22.7742 37.3273C22.9867 37.0164 23.1148 36.7094 23.2266 36.4391C23.4273 35.9578 23.4937 35.8633 23.6703 35.8039C23.725 35.7852 23.7547 35.7797 23.775 35.7828C23.9336 35.8328 24.2273 36.4539 24.3852 36.7875C24.5938 37.2289 24.8305 37.7289 25.1492 38.1305C25.3156 38.35 25.4312 38.5633 25.5555 38.7883C25.7789 39.1984 26.0328 39.6641 26.5805 40.1031C27.2266 40.6086 27.9383 40.8547 28.7586 40.8547C29.4133 40.8547 30.0406 40.7047 30.7031 40.5453C31.157 40.4359 31.6273 40.3234 32.1156 40.2625C32.375 40.2273 32.6094 40.2078 32.8289 40.1883C33.5086 40.1313 34.15 40.0758 34.9656 39.6555C35.1047 39.5836 35.25 39.5133 35.3969 39.443C36.3695 38.9727 37.8398 38.2625 37.4406 36.7094C37.1375 35.4172 35.9883 35.0406 35.3648 34.8375C35.168 34.775 34.9656 34.743 34.7633 34.743C34.2375 34.743 33.8078 34.9562 33.4625 35.1281C33.1625 35.2773 32.9117 35.3922 32.7078 35.3461C32.1094 35.2039 31.8133 34.8797 31.3234 34.3438C31.2242 34.2344 31.1203 34.1227 31.0094 34.0047C30.8391 33.8258 30.7398 33.6148 30.625 33.3703C30.4281 32.9516 30.1836 32.4305 29.5492 32.0531C28.9117 31.6742 28.0883 31.7898 27.4906 31.9625C27.1461 32.0617 26.868 32.1492 26.6555 32.0352C26.4773 31.9414 26.3969 31.7758 26.2422 31.3906C26.0547 30.9258 25.7984 30.2891 25.0547 29.9383C24.6422 29.7445 24.232 29.65 23.8023 29.65C23.0289 29.65 22.3695 29.9547 21.6711 30.2773L21.2938 30.45C20.6336 30.7438 20.2313 31.1859 19.907 31.5414C19.6039 31.8742 19.3852 32.1141 19.0109 32.2461C18.1156 32.5609 17.418 32.7148 16.8789 32.7148C16.1539 32.7148 15.9453 32.4414 15.8367 32.1766C15.5727 31.5258 15.5977 31.3109 15.8227 31.0789C15.9594 31.0789 16.1055 31.1078 16.2578 31.1336C16.6656 31.2023 17.1953 31.2617 17.65 31.1437C18.3953 30.9422 18.8852 30.6875 19.4039 30.418C19.6211 30.3047 19.8516 30.1852 20.1281 30.0562C20.3117 29.9695 20.5953 29.9203 20.868 29.8734C21.475 29.7687 22.7398 29.5523 22.6477 28.2453C22.5531 27.0766 21.4883 26.8266 20.8516 26.6766C20.6727 26.6344 20.4891 26.5938 20.3133 26.5297C20.0914 26.4508 19.8492 26.4102 19.5758 26.4055C19.6898 26.2367 19.7688 26.0273 19.7906 25.7648C19.857 24.8086 19.3703 24.0344 18.3414 23.4633C18.068 23.3125 17.7758 23.2359 17.4734 23.2359C17.0734 23.2359 16.7352 23.3648 16.4367 23.4789C16.168 23.5805 15.9336 23.6648 15.7422 23.6375C15.1016 23.5438 14.7195 23.2602 14.1922 22.868C13.9 22.6508 13.568 22.4039 13.157 22.168C12.8187 21.9758 12.5547 21.775 12.2742 21.5633C11.7656 21.1781 11.2398 20.7789 10.3836 20.5383C9.29375 20.232 8.36563 20.307 7.22656 20.4758L6.94609 20.5172C6.76016 20.5437 6.58828 20.5594 6.42578 20.5742C5.83438 20.6297 5.22344 20.6867 4.525 21.1633C3.76953 21.6883 3.58984 22.4016 3.44453 22.975C3.35234 23.3398 3.27187 23.6547 3.05312 23.9227C2.83203 24.1992 2.6 24.357 2.30703 24.557C2.07656 24.7141 1.825 24.8891 1.56719 25.1305C1.56563 25.0844 1.5625 25.043 1.5625 25C1.5625 13.5844 9.72656 4.07891 20.5336 1.99297C20.6203 2.12734 20.7094 2.25781 20.7945 2.37578C21.0664 2.75078 21.1336 2.87031 21.1156 3.09063C21.0961 3.34922 20.9977 3.47344 20.6898 3.82812L20.5367 4.00781C20.3336 4.25156 20.125 4.37109 19.8352 4.53594C19.5789 4.68281 19.2875 4.84844 18.9672 5.125C18.8398 5.23594 18.7094 5.32031 18.5859 5.40156C18.2133 5.64844 17.7023 5.9875 17.5148 6.73047C17.3242 7.49844 17.7641 8.02891 18.0273 8.34609C18.1117 8.44922 18.2547 8.62109 18.2516 8.66719C18.2203 9.06563 18.1367 9.25547 17.85 9.55781C17.7945 9.61875 17.7461 9.65078 17.6344 9.72344C17.5461 9.77969 17.4531 9.84062 17.35 9.91953L17.2555 10.0055C17.2086 10.0547 16.7977 10.5078 16.5539 11.2172C16.3687 11.7758 16.3609 12.0672 16.5195 12.4656L16.5539 12.5578C16.582 12.6523 16.6086 12.9852 16.6102 13.2L16.5445 14.1516L17.1805 14.3102C17.5984 14.4141 17.8102 14.5008 18.2375 14.7117C18.5117 14.8437 18.6922 14.9695 18.9203 15.1281L19.15 15.2836C19.4562 15.4664 19.7672 15.4344 20.0977 15.3977C20.2625 15.4141 20.4078 15.425 20.5461 15.4367C20.8469 15.4602 21.1125 15.482 21.4906 15.5367L21.7359 15.5672C21.9266 15.5906 22.0781 15.607 22.2891 15.6633C22.4094 15.6969 22.5117 15.775 22.6812 15.9078C22.9703 16.1359 23.3664 16.4477 24.0133 16.4477C24.5789 16.4438 24.9445 16.1953 25.2117 16.0133C25.3664 15.9086 25.4594 15.8477 25.575 15.8156C25.8469 15.7383 26.1578 15.7414 26.4742 15.7578C26.9305 15.7836 27.3922 15.7742 27.8203 15.668C28.0195 15.618 28.1781 15.5492 28.3297 15.4789C28.4625 15.418 28.5117 15.3969 28.5281 15.3938L28.5844 15.3953L28.625 15.3906C28.6766 15.3945 28.757 15.4289 28.8586 15.4719C29.0594 15.5578 29.3336 15.6766 29.7477 15.6906C30.5906 15.6906 31.8969 14.6047 31.9125 14.5914C32.0578 14.4633 32.1789 14.407 32.3805 14.3125C32.5227 14.2461 32.6719 14.175 32.8773 14.0555C33.093 13.9125 33.2648 13.7734 33.4273 13.6398C33.657 13.4516 33.8078 13.3266 34.068 13.2359C34.6125 13.0422 34.8719 12.9703 35.2094 13.0844C35.4023 13.1516 35.4805 13.2055 35.7297 13.4078C35.8516 13.5063 35.9164 13.6 36.0258 13.7555C36.132 13.9078 36.2445 14.0656 36.3969 14.2281C36.4648 14.3039 36.5211 14.375 36.5742 14.443C36.7445 14.6578 36.9562 14.9266 37.3531 15.1453C37.8477 15.4141 38.4531 15.375 38.8984 15.2852C39.0984 15.2445 39.2539 15.207 39.4203 15.2328L39.6969 15.2703C39.8875 15.2945 40.025 15.3125 40.1586 15.3562C40.2258 15.3766 40.2961 15.4047 40.3805 15.45C40.7227 15.632 40.8508 15.7945 41.1516 16.2445C41.4188 16.6523 41.4773 16.9523 41.5844 17.4977L41.6398 17.7766C41.7344 18.257 41.7445 18.5836 41.7578 19.0352L41.7734 19.4656C41.782 19.6727 41.7984 19.8539 41.8156 20.025C41.8492 20.3672 41.8711 20.5938 41.7937 20.9141C41.7477 21.1094 41.6547 21.2383 41.4797 21.468C41.2812 21.7281 41.0344 22.0523 40.9016 22.5375L40.8625 22.6703C40.7211 23.1547 40.5867 23.6125 40.7375 24.2898C40.7727 24.4406 40.7656 24.8836 40.7602 25.207C40.7453 26.0914 40.7367 26.6758 41.107 27.0523C41.2766 27.225 41.5016 27.3195 41.7406 27.3195L41.9828 27.3031L42.1422 27.2266C42.3648 27.1203 42.5578 26.968 42.7313 26.7992C42.7375 26.8133 42.743 26.8266 42.7484 26.8406C42.9633 27.3203 43.4227 27.5961 44.0102 27.5961C44.6539 27.5961 45.957 27.1398 46.0461 26.2953C46.0672 26.0727 46.0586 25.8711 46.0477 25.6813C46.0312 25.407 46.0367 25.3539 46.0891 25.2703C46.1195 25.2469 46.2508 25.2086 46.3375 25.1844C46.6109 25.1055 46.9836 24.9992 47.3289 24.6656C47.6313 24.3656 47.7664 24.0641 47.875 23.8227C47.9562 23.6414 48.0031 23.5422 48.0984 23.4438C48.1547 23.3844 48.2313 23.3453 48.3703 23.2789C48.4094 23.8477 48.4375 24.4203 48.4375 25C48.4375 37.9438 37.9438 48.4375 25 48.4375Z" fill="#000064"/>
<path d="M34.8664 22.0016C34.007 22.2493 33.6976 22.9055 33.4711 23.3852C33.35 23.643 33.2445 23.8649 33.0711 24.0251C32.7648 24.311 32.4687 24.4688 32.125 24.6516C31.7437 24.8548 31.3117 25.0844 30.8648 25.5016C30.7054 25.6493 30.5226 25.7766 30.3484 25.9008C29.7726 26.3094 28.9015 26.9274 29.157 28.0915C29.3242 28.8219 29.8859 29.2579 30.6586 29.2579C31.1703 29.2579 31.7257 29.079 32.264 28.9055C32.5296 28.8204 32.7929 28.7337 33.0328 28.6805C34.4015 28.3813 35.3382 28.0227 36.3632 26.993C36.4757 26.8813 36.5929 26.7696 36.7117 26.6555C37.5976 25.8118 38.9351 24.536 37.9406 23.0594C37.2718 22.0555 36.0867 21.6508 34.8664 22.0016ZM35.6328 25.5243C35.5062 25.6454 35.3804 25.7657 35.2578 25.8876C34.4898 26.6594 33.8468 26.9024 32.6976 27.154C32.4125 27.2165 32.0984 27.3165 31.7836 27.418C31.3914 27.5438 30.9484 27.6876 30.6789 27.6946C30.6953 27.5993 30.8195 27.4829 31.2531 27.1751C31.4648 27.0243 31.7062 26.8532 31.9289 26.6454C32.2273 26.368 32.5195 26.2118 32.8586 26.0313C33.2437 25.8258 33.6812 25.5938 34.1336 25.1704C34.5273 24.8079 34.725 24.3891 34.8836 24.0524C35.0836 23.6298 35.1453 23.5477 35.2992 23.5032C35.45 23.4594 35.5968 23.4376 35.7359 23.4376C36.1195 23.4376 36.4242 23.6016 36.6421 23.929C36.8437 24.2282 36.6171 24.586 35.6328 25.5243Z" fill="#000064"/>
<path d="M25.3297 41.4695C25.1492 41.4695 24.9664 41.4976 24.7773 41.5554C23.6382 41.9226 23.6921 43.0664 23.7203 43.6812C23.7312 43.907 23.7406 44.1203 23.7195 44.3062C23.7015 44.4757 23.6546 44.6382 23.6132 44.7945C23.4742 45.3195 23.2648 46.1117 23.9546 46.7914C24.2796 47.1039 24.6898 47.2695 25.1421 47.2695C25.8132 47.2695 26.5687 46.8812 27.1679 46.2273C28.0851 45.2062 28.0961 43.714 27.2015 42.6078C26.7843 42.0773 26.1961 41.4695 25.3297 41.4695ZM26.0093 45.1773C25.6921 45.525 25.3328 45.707 25.1421 45.707C25.0953 45.707 25.0718 45.6976 25.0343 45.6656C25.0179 45.5937 25.0828 45.3539 25.1242 45.1945C25.1796 44.9828 25.2437 44.7421 25.2718 44.4804C25.3078 44.175 25.2929 43.8742 25.2812 43.6078C25.2726 43.4257 25.2609 43.1617 25.2836 43.0367C25.4148 43.0132 25.5687 43.0593 25.9789 43.5812C26.4 44.1023 26.4109 44.7312 26.0093 45.1773Z" fill="#000064"/>
</svg>
