<svg width="50" height="54" viewBox="0 0 50 54" fill="none" xmlns="http://www.w3.org/2000/svg">
<path d="M49.203 54H0.796724C0.356667 54 0 53.6422 0 53.2008V43.9262C0 40.338 2.14584 37.1586 5.46685 35.826L16.92 31.2307C17.1205 31.1502 17.3452 31.1547 17.542 31.2435C17.7391 31.3322 17.8918 31.4971 17.9653 31.7009L21.3365 41.0504L22.4458 37.8515L21.4653 35.4475C21.3647 35.2011 21.3934 34.9203 21.541 34.6994C21.6892 34.4783 21.937 34.3457 22.2026 34.3457H27.7972C28.0627 34.3457 28.3108 34.4783 28.4587 34.6994C28.6066 34.9206 28.635 35.2011 28.5344 35.4475L27.5542 37.8517L28.6635 41.0506L32.0347 31.7011C32.108 31.4973 32.2609 31.3324 32.458 31.2437C32.6548 31.155 32.8795 31.1505 33.08 31.2309L44.5329 35.8263C47.8542 37.1588 50 40.3386 50 43.9264V53.2011C49.9997 53.6422 49.6433 54 49.203 54ZM1.59345 52.4016H48.4066V43.9262C48.4066 40.9955 46.6538 38.3984 43.9412 37.3102L33.2531 33.0217L29.398 43.7125C29.2833 44.0306 28.9811 44.2376 28.6438 44.2397C28.3063 44.2376 28.0072 44.0226 27.8962 43.7029L25.9506 38.091C25.8869 37.9071 25.8919 37.706 25.9658 37.5259L26.6108 35.9438H23.3892L24.0345 37.5257C24.1081 37.706 24.1134 37.9069 24.0499 38.091L22.104 43.7029C21.993 44.0226 21.6937 44.2376 21.3564 44.2397C21.0093 44.2386 20.7169 44.0306 20.6022 43.7125L16.7471 33.0217L6.05855 37.3102C3.34597 38.3984 1.59345 40.9952 1.59345 43.9262V52.4016ZM43.0874 50.5041H34.1702C33.7301 50.5041 33.3734 50.1463 33.3734 49.7049V44.1984C33.3734 43.757 33.7301 43.3992 34.1702 43.3992H43.0874C43.5274 43.3992 43.8841 43.757 43.8841 44.1984V49.7049C43.8841 50.146 43.5274 50.5041 43.0874 50.5041ZM34.9669 48.9057H42.2906V44.9976H34.9669V48.9057ZM24.9999 31.0426C23.7665 31.0426 22.564 30.813 21.4255 30.3598C20.5456 30.0095 19.8185 29.5689 19.2648 29.0502C17.7353 27.6183 16.1453 24.5542 15.5592 23.3613C14.5638 23.3128 12.5224 22.7805 11.6385 19.3911C11.1998 17.708 11.2999 16.3553 11.936 15.3707C12.2831 14.8331 12.72 14.5166 13.0814 14.3328C13.075 13.9129 13.0846 13.301 13.1515 12.5679C12.5914 11.7098 11.3663 9.15105 13.4697 5.40602C13.4702 5.40522 13.4705 5.40469 13.471 5.40389C13.471 5.40389 13.4734 5.39963 13.4739 5.39856C13.4742 5.39803 13.4848 5.37965 13.4856 5.37805C13.4875 5.37512 13.4893 5.37192 13.4909 5.36899C13.493 5.36553 13.4949 5.36207 13.4968 5.3586C13.4973 5.3578 13.4978 5.357 13.4984 5.3562C14.8751 2.94104 16.6563 2.43222 17.9104 2.43142C17.9106 2.43142 17.9109 2.43142 17.9111 2.43142H17.9117C17.9122 2.43142 17.913 2.43142 17.913 2.43142H17.9135C18.2211 2.43142 18.4983 2.46285 18.7334 2.50574C19.3049 1.49822 20.9079 0 25.3807 0C25.3802 0 25.381 0 25.3807 0H25.3812C25.3839 0 25.3865 0 25.3892 0L25.5916 0.00106559C25.5934 0.00106559 25.5953 0.00106559 25.5971 0.00106559H25.5985C25.6011 0.00106559 25.6035 0.00106559 25.6056 0.00106559C28.558 0.0338326 30.9121 1.11941 32.3783 2.03528C35.1637 3.40217 36.8668 6.25796 37.2845 7.7402C37.4673 8.38942 37.5589 9.14412 37.5562 9.98301C37.5562 9.98328 37.5562 9.98354 37.5562 9.98381C37.5562 9.98381 37.5562 9.98408 37.5562 9.98434C37.5562 9.98514 37.5562 9.98621 37.5562 9.98727C37.5562 9.98754 37.5562 9.98807 37.5562 9.98834C37.5562 9.98887 37.5562 9.98967 37.5562 9.99047C37.5562 9.99154 37.5562 9.99313 37.5562 9.99446C37.5562 9.99553 37.5562 9.99686 37.5562 9.99793C37.5562 9.99926 37.5562 10.0009 37.5562 10.0022C37.5472 11.9224 37.0572 13.764 36.9191 14.2456C36.9189 14.2752 36.9186 14.304 36.9181 14.3317C37.2795 14.5155 37.7166 14.832 38.0635 15.3696C38.6998 16.3545 38.7997 17.707 38.3609 19.3901C37.4774 22.7795 35.4359 23.312 34.4405 23.3605C33.8544 24.5534 32.2644 27.6175 30.7347 29.0497C30.1807 29.5683 29.4538 30.009 28.574 30.359C27.4354 30.813 26.2329 31.0426 24.9999 31.0426ZM16.0381 21.7437C16.3459 21.7437 16.6396 21.9187 16.7718 22.2035C16.7907 22.2445 18.6972 26.3324 20.352 27.8818C20.76 28.2638 21.3187 28.5976 22.0129 28.8741C22.9637 29.2524 23.9684 29.4445 24.9996 29.4445C26.0308 29.4445 27.0355 29.2527 27.9863 28.8741C28.6802 28.5979 29.2392 28.2641 29.6474 27.882C31.3022 26.3324 33.2088 22.2448 33.2276 22.2038C33.3833 21.8686 33.7487 21.6846 34.1088 21.7575C34.1085 21.7575 34.1085 21.7575 34.1085 21.7575C34.1107 21.7575 34.1757 21.7671 34.2775 21.7671C34.956 21.7671 36.1883 21.4059 36.819 18.9867C37.1305 17.7919 37.1037 16.8508 36.742 16.2652C36.4366 15.771 35.9723 15.6693 35.9524 15.6653C35.5429 15.5968 35.2691 15.2271 35.3042 14.812C35.3042 14.8104 35.3241 14.5643 35.3259 14.1548C35.3116 13.9313 35.1995 13.2565 34.8622 12.9352C34.4543 12.6084 31.9723 12.128 29.572 11.6635C28.5631 11.4682 27.4198 11.2471 26.2146 10.9996C26.2133 10.9993 26.2117 10.9991 26.2101 10.9988C25.4224 10.8552 24.7431 10.6607 24.1893 10.4212C22.1649 9.67132 20.7719 8.59587 19.9253 7.77537C19.6204 8.62331 19.1309 9.67532 18.3966 10.4708C17.094 11.8822 15.5181 12.6294 14.7187 12.9424C14.6337 14.0536 14.6934 14.804 14.6942 14.8125C14.7288 15.2271 14.4404 15.6 14.0314 15.6682C14.0261 15.6698 13.5618 15.7716 13.2564 16.2657C12.8947 16.8513 12.8679 17.7925 13.1794 18.9873C13.8104 21.4067 15.0429 21.7677 15.7212 21.7677C15.8328 21.7677 15.9005 21.7562 15.901 21.7562C15.9472 21.7474 15.9929 21.7437 16.0381 21.7437ZM19.5651 5.35354C19.8294 5.35354 20.0809 5.48567 20.2301 5.71265C20.2421 5.73049 21.6406 7.77803 24.7611 8.92834C24.7763 8.93393 24.7906 8.93953 24.8052 8.94592C25.2532 9.14199 25.8269 9.30423 26.5099 9.4281C26.52 9.42997 26.5298 9.43183 26.5399 9.43396C27.731 9.67852 28.8696 9.89909 29.8745 10.0936C33.4972 10.7947 35.1199 11.1259 35.8332 11.668C35.907 11.1432 35.9604 10.5691 35.9631 9.99527C35.9631 9.9942 35.9631 9.99287 35.9631 9.99154C35.9631 9.99074 35.9631 9.98967 35.9631 9.98887C35.9631 9.98807 35.9631 9.98701 35.9631 9.98621C35.9631 9.98621 35.9631 9.98594 35.9631 9.98567C35.9631 9.98514 35.9631 9.98434 35.9631 9.98381C35.9631 9.98354 35.9631 9.98328 35.9631 9.98274C35.9631 9.98274 35.9631 9.98248 35.9631 9.98221C35.9631 9.98141 35.9631 9.98061 35.9631 9.97955C35.9631 9.97875 35.9631 9.97795 35.9631 9.97715C35.9649 9.3338 35.9028 8.76317 35.7793 8.27913C35.7702 8.24423 35.7612 8.20986 35.7517 8.17603C35.7323 8.10703 35.7092 8.03484 35.6829 7.95971C35.2242 6.6533 33.7304 4.47816 31.6653 3.46558C31.6326 3.45066 31.601 3.43361 31.5704 3.41443C30.2811 2.60298 28.1961 1.62929 25.5886 1.60052C25.5865 1.60052 25.5841 1.60052 25.5823 1.60052L25.381 1.59839C25.2538 1.59839 25.1297 1.59972 25.0086 1.60212C25.007 1.60212 25.006 1.60212 25.0044 1.60212C20.5294 1.69749 20.0233 3.49142 19.9996 3.58865C19.9962 3.6089 19.9925 3.62914 19.9877 3.64939C19.9601 3.76741 19.9072 3.87423 19.8358 3.96454C19.7811 4.03354 19.7163 4.09188 19.644 4.1385C19.5296 4.21256 19.396 4.25784 19.2544 4.2653C19.1697 4.2701 19.085 4.26104 19.0011 4.23786C18.962 4.22694 18.924 4.21362 18.8877 4.19737C18.8322 4.17526 18.445 4.02954 17.913 4.02954C17.9125 4.02954 17.9122 4.02954 17.9117 4.02954C16.6969 4.03007 15.6739 4.74935 14.8711 6.16739C14.8706 6.16819 14.8701 6.16899 14.8695 6.16979C14.8695 6.17005 14.8693 6.17005 14.8693 6.17032C14.8682 6.17218 14.8671 6.17378 14.8661 6.17565C14.8645 6.17858 14.8629 6.18124 14.8613 6.18417C14.8608 6.18524 14.8602 6.18604 14.8597 6.1871C14.8592 6.18763 14.8589 6.18817 14.8586 6.1887C13.3935 8.79621 13.9113 10.5931 14.3068 11.3837C14.9999 11.0926 16.2261 10.4695 17.2276 9.38441C18.1584 8.3761 18.6656 6.59922 18.7825 5.99956C18.8446 5.68094 19.0927 5.43186 19.4101 5.36899C19.4621 5.35834 19.5139 5.35354 19.5651 5.35354Z" fill="#000064"/>
</svg>
