<svg width="51" height="51" viewBox="0 0 51 51" fill="none" xmlns="http://www.w3.org/2000/svg">
<path d="M48.1801 12.7471H11.9972L9.56017 2.39008C9.21122 0.995865 8.27432 0 6.95422 0H2.39004C1.06994 0 0 1.06996 0 2.39008C0 3.71019 1.06994 4.78015 2.39004 4.78015H5.35608L14.1745 41.7929C12.4434 42.5107 11.2252 44.2172 11.2252 46.2081C11.2252 48.8476 13.3659 50.9883 16.0053 50.9883C18.373 50.9883 20.3337 49.2658 20.7137 47.0048H31.9389C32.3197 49.2658 34.2796 50.9883 36.6473 50.9883C39.2867 50.9883 41.4274 48.8476 41.4274 46.2081C41.4274 43.5687 39.2867 41.428 36.6473 41.428C34.2796 41.428 32.3189 43.152 31.9389 45.4114H20.7137C20.3329 43.152 18.373 41.428 16.0053 41.428C15.9057 41.428 15.8093 41.4375 15.7113 41.4431L15.1999 39.6442C15.5408 39.7581 15.9113 39.8346 16.3359 39.8346H42.6017C44.693 39.8346 45.7151 38.3177 46.1868 36.6478L50.9135 15.9338C51.2616 14.0082 50.402 12.7471 48.1801 12.7471ZM36.6473 43.0214C38.4072 43.0214 39.834 44.4482 39.834 46.2081C39.834 47.968 38.4072 49.3949 36.6473 49.3949C34.8874 49.3949 33.4606 47.968 33.4606 46.2081C33.4606 44.4482 34.8874 43.0214 36.6473 43.0214ZM19.192 46.2081C19.192 47.968 17.7652 49.3949 16.0053 49.3949C14.2454 49.3949 12.8186 47.968 12.8186 46.2081C12.8186 44.4482 14.2454 43.0214 16.0053 43.0214C17.7652 43.0214 19.192 44.4482 19.192 46.2081ZM6.67618 3.67355C6.67618 3.67355 6.55349 3.18677 5.99821 3.18677C5.44292 3.18677 2.39004 3.18677 2.39004 3.18677C1.94948 3.18677 1.59336 2.83065 1.59336 2.39008C1.59336 1.94951 1.94948 1.59338 2.39004 1.59338H7.03708C7.47764 1.59338 7.83695 1.95588 7.96681 2.39008L10.4039 12.7471H10.7695C9.98002 12.7471 9.37056 12.9136 8.91884 13.206L6.67618 3.67355ZM49.3735 15.9338L44.5934 36.6478C44.3775 37.5776 43.78 38.2412 42.9005 38.2412H16.038C15.16 38.2412 14.5641 37.5776 14.349 36.6478L9.57849 15.9338C9.32993 14.9547 9.67808 14.3405 10.7568 14.3405H48.192C49.2739 14.3405 49.622 14.9547 49.3735 15.9338Z" fill="#000064"/>
<path d="M36.6345 46.9176C37.1078 46.9176 37.4915 46.5819 37.4915 46.1678C37.4915 45.7537 37.1078 45.418 36.6345 45.418C36.1613 45.418 35.7776 45.7537 35.7776 46.1678C35.7776 46.5819 36.1613 46.9176 36.6345 46.9176Z" fill="#000064"/>
<path d="M15.9605 46.9176C16.3746 46.9176 16.7103 46.5819 16.7103 46.1678C16.7103 45.7537 16.3746 45.418 15.9605 45.418C15.5464 45.418 15.2107 45.7537 15.2107 46.1678C15.2107 46.5819 15.5464 46.9176 15.9605 46.9176Z" fill="#000064"/>
<path d="M29.4573 17.5674C28.0965 17.5674 26.9936 18.6398 26.9936 19.9629V32.7392C26.9936 34.0624 28.0965 35.1348 29.4573 35.1348C30.8181 35.1348 31.921 34.0624 31.921 32.7392V19.9629C31.921 18.6398 30.8181 17.5674 29.4573 17.5674ZM30.2786 32.7392C30.2786 33.1808 29.9115 33.5377 29.4573 33.5377C29.0032 33.5377 28.6361 33.1808 28.6361 32.7392V19.9629C28.6361 19.5214 29.0032 19.1644 29.4573 19.1644C29.9115 19.1644 30.2786 19.5214 30.2786 19.9629V32.7392Z" fill="#000064"/>
<path d="M37.4914 17.5674C36.1897 17.5674 35.1348 18.6398 35.1348 19.9629V32.7392C35.1348 34.0624 36.1897 35.1348 37.4914 35.1348C38.793 35.1348 39.848 34.0624 39.848 32.7392V19.9629C39.848 18.6398 38.793 17.5674 37.4914 17.5674ZM38.2769 32.7392C38.2769 33.1808 37.9258 33.5377 37.4914 33.5377C37.057 33.5377 36.7058 33.1808 36.7058 32.7392V19.9629C36.7058 19.5214 37.057 19.1644 37.4914 19.1644C37.9258 19.1644 38.2769 19.5214 38.2769 19.9629V32.7392Z" fill="#000064"/>
<path d="M21.5306 17.5674C20.1698 17.5674 19.0668 18.6398 19.0668 19.9629V32.7392C19.0668 34.0624 20.1698 35.1348 21.5306 35.1348C22.8913 35.1348 23.9943 34.0624 23.9943 32.7392V19.9629C23.9943 18.6398 22.8913 17.5674 21.5306 17.5674ZM22.3518 32.7392C22.3518 33.1808 21.9847 33.5377 21.5306 33.5377C21.0764 33.5377 20.7093 33.1808 20.7093 32.7392V19.9629C20.7093 19.5214 21.0764 19.1644 21.5306 19.1644C21.9847 19.1644 22.3518 19.5214 22.3518 19.9629V32.7392Z" fill="#000064"/>
</svg>
